{"glyphs":{"0":{"ha":926,"x_min":0,"x_max":0,"o":"m 144 486 b 342 867 164 578 215 747 b 664 990 447 969 576 990 b 943 865 847 990 913 918 b 978 488 992 789 1018 679 b 453 -19 918 211 761 -19 b 183 97 342 -19 238 14 b 144 486 103 218 125 390 m 417 482 b 490 164 372 276 376 164 b 610 221 533 164 581 185 b 706 476 667 296 701 456 b 731 708 715 525 736 638 b 631 807 729 743 719 807 b 417 482 553 807 478 774 "},"1":{"ha":926,"x_min":0,"x_max":0,"o":"m 536 715 b 276 596 450 654 325 608 l 322 810 b 633 964 440 844 511 875 l 858 964 l 653 0 l 385 0 "},"2":{"ha":926,"x_min":0,"x_max":0,"o":"m 92 200 b 650 601 343 361 558 500 b 708 711 674 631 699 667 b 625 808 726 797 660 808 b 486 696 521 808 496 722 l 215 696 b 325 882 222 726 242 801 b 678 993 428 981 596 993 b 968 875 825 993 922 956 b 986 719 994 829 999 775 b 418 192 943 519 726 383 l 876 192 l 836 0 l 49 0 "},"3":{"ha":926,"x_min":0,"x_max":0,"o":"m 364 278 b 479 161 353 215 375 161 b 656 289 596 161 643 229 b 479 413 682 413 535 413 b 403 410 449 413 421 411 l 439 582 b 586 586 475 581 526 578 b 731 708 708 603 729 697 b 624 817 746 775 701 817 b 476 706 576 817 500 800 l 208 706 b 671 994 258 907 451 994 b 1001 739 921 994 1032 885 b 729 510 976 622 864 524 l 728 503 b 921 268 778 497 965 475 b 776 64 906 199 867 121 b 443 -18 721 29 633 -18 b 128 93 283 -18 185 15 b 94 278 76 163 88 233 "},"4":{"ha":926,"x_min":0,"x_max":0,"o":"m 529 192 l 64 192 l 113 418 l 636 968 l 944 968 l 817 368 l 972 368 l 935 192 l 779 192 l 739 0 l 489 0 m 571 368 l 656 764 l 281 368 "},"5":{"ha":926,"x_min":0,"x_max":0,"o":"m 392 275 b 488 165 379 201 421 165 b 613 228 557 165 592 200 b 654 329 636 261 650 304 b 561 479 671 406 656 479 b 433 394 494 479 450 438 l 168 397 l 307 963 l 1001 963 l 961 774 l 508 774 l 442 538 b 561 628 463 563 493 599 b 697 657 606 649 651 657 b 928 339 836 657 978 572 b 765 71 915 279 875 156 b 463 -21 665 -7 546 -21 b 157 89 383 -21 224 -7 b 126 275 106 160 118 232 "},"6":{"ha":926,"x_min":0,"x_max":0,"o":"m 728 725 b 699 810 733 769 719 794 b 639 826 679 824 654 826 b 479 717 563 826 511 769 b 417 529 443 658 428 581 b 689 650 447 564 524 650 b 942 335 882 650 982 525 b 471 -19 885 67 644 -19 b 172 136 356 -19 228 13 b 154 483 133 221 121 329 b 692 990 207 735 363 990 b 982 725 821 990 1021 951 m 694 322 b 582 485 703 357 721 485 b 393 318 483 485 414 418 b 507 160 367 196 436 160 b 694 322 604 160 674 225 "},"7":{"ha":926,"x_min":0,"x_max":0,"o":"m 268 960 l 1033 960 l 992 765 l 467 0 l 157 0 l 718 764 l 226 764 "},"8":{"ha":926,"x_min":0,"x_max":0,"o":"m 406 511 b 236 731 289 524 207 596 b 371 918 256 825 319 886 b 672 989 422 949 501 989 b 975 865 803 989 924 964 b 990 735 997 828 1001 783 b 733 510 974 653 903 540 l 732 503 b 926 268 885 486 954 397 b 465 -19 892 107 749 -19 b 99 261 142 -19 69 122 b 406 507 124 379 221 478 m 585 592 b 740 710 707 592 735 686 b 633 828 750 756 738 828 b 478 711 564 828 494 790 b 585 592 464 647 489 592 m 490 154 b 679 288 618 154 667 231 b 544 425 694 360 660 425 b 358 289 426 425 372 350 b 490 154 349 240 356 154 "},"9":{"ha":926,"x_min":0,"x_max":0,"o":"m 358 247 b 465 151 349 193 388 151 b 696 446 613 151 657 274 b 450 347 638 392 567 347 b 224 435 321 347 264 383 b 183 657 179 492 164 569 b 656 992 225 853 413 992 b 976 771 911 992 960 853 b 967 479 996 679 989 579 b 786 115 943 368 893 222 b 422 -22 671 1 542 -22 b 128 86 299 -22 190 3 b 103 247 88 142 97 207 m 549 513 b 733 663 653 513 715 576 b 617 815 747 726 735 815 b 435 665 514 815 453 749 b 549 513 419 593 439 513 "}," ":{"ha":463,"x_min":0,"x_max":0,"o":""},"!":{"ha":617,"x_min":0,"x_max":0,"o":"m 667 1003 l 469 299 l 269 299 l 367 1003 m 229 207 l 474 207 l 429 0 l 185 0 "},"\"":{"ha":694,"x_min":0,"x_max":0,"o":"m 278 593 l 315 963 l 533 963 l 415 593 m 553 593 l 590 963 l 807 963 l 689 593 "},"#":{"ha":926,"x_min":0,"x_max":0,"o":"m 696 963 l 600 721 l 724 721 l 819 963 l 1013 963 l 917 721 l 1029 721 l 994 556 l 851 556 l 789 396 l 900 396 l 864 231 l 722 231 l 631 0 l 438 0 l 528 231 l 404 231 l 314 0 l 119 0 l 211 231 l 99 231 l 135 396 l 278 396 l 342 556 l 229 556 l 264 721 l 407 721 l 503 963 m 594 396 l 658 556 l 535 556 l 471 396 "},"$":{"ha":926,"x_min":0,"x_max":0,"o":"m 369 288 b 442 153 363 247 353 176 l 488 365 l 406 389 b 211 644 315 414 171 456 b 606 924 239 775 360 917 l 632 1049 l 714 1049 l 688 924 b 957 639 961 911 988 788 l 704 639 b 653 757 726 736 672 754 l 610 558 b 871 456 749 526 817 510 b 913 272 914 411 928 343 b 699 25 900 214 854 94 b 488 -18 642 0 575 -12 l 461 -142 l 379 -142 l 406 -18 b 119 288 267 -12 67 33 m 571 758 b 472 669 493 739 478 690 b 533 581 464 628 489 592 m 524 150 b 647 251 597 161 638 204 b 586 340 663 319 603 336 l 565 347 "},"%":{"ha":1389,"x_min":0,"x_max":0,"o":"m 251 744 b 551 1025 264 804 311 1025 b 714 957 586 1025 671 1019 b 732 749 742 915 756 865 b 636 543 710 644 681 589 b 429 456 586 492 513 456 b 269 525 368 456 304 476 b 251 744 229 582 236 671 m 422 726 b 456 581 393 589 428 581 b 553 740 503 581 528 619 b 526 906 585 889 563 906 b 422 726 492 906 457 890 m 918 289 b 1218 571 932 350 978 571 b 1381 501 1253 571 1338 564 b 1399 293 1408 460 1424 410 b 1303 88 1376 190 1346 133 b 1096 0 1254 36 1179 0 b 938 69 1035 0 971 22 b 918 289 897 128 903 215 m 1090 272 b 1121 125 1060 133 1093 125 b 1221 286 1168 125 1194 164 b 1193 450 1251 433 1229 450 b 1090 272 1158 450 1125 436 m 1271 1042 l 525 -17 l 371 -17 l 1122 1042 "},"&":{"ha":1235,"x_min":0,"x_max":0,"o":"m 1285 553 b 1064 215 1251 428 1201 332 l 1221 0 l 883 0 l 838 65 b 478 -19 765 29 669 -19 b 143 107 386 -19 206 -4 b 119 275 126 138 103 194 b 413 544 156 446 319 508 b 325 783 376 583 299 663 b 753 1028 361 956 553 1028 b 1065 781 849 1028 1115 1011 b 819 513 1036 640 918 571 l 933 371 b 1044 553 1021 458 1036 525 m 672 661 b 808 793 699 674 794 726 b 722 875 819 846 778 875 b 600 793 664 875 611 842 b 672 661 596 769 593 742 m 563 396 b 410 268 454 351 419 311 b 544 151 399 217 432 151 b 710 213 599 151 663 168 "},"’":{"ha":463,"x_min":0,"x_max":0,"o":"m 619 1003 l 376 633 l 189 633 l 360 1003 "},"(":{"ha":463,"x_min":0,"x_max":0,"o":"m 633 1046 b 382 440 461 708 417 603 b 376 -169 350 285 338 140 l 193 -169 b 157 433 158 -26 107 193 b 453 1046 204 654 347 879 "},")":{"ha":463,"x_min":0,"x_max":0,"o":"m 15 -169 b 267 438 188 168 232 275 b 272 1046 300 593 311 738 l 456 1046 b 492 444 490 904 543 685 b 196 -169 444 224 303 -1 "},"*":{"ha":772,"x_min":0,"x_max":0,"o":"m 657 1021 l 789 926 l 629 785 l 828 826 l 790 647 l 614 690 l 713 538 l 536 453 l 517 640 l 415 451 l 285 539 l 447 690 l 247 650 l 285 826 l 469 785 l 369 931 l 538 1019 l 558 829 "},"+":{"ha":917,"x_min":0,"x_max":0,"o":"m 418 276 l 143 276 l 185 471 l 460 471 l 518 747 l 717 747 l 658 471 l 932 471 l 890 276 l 617 276 l 558 0 l 360 0 "},",":{"ha":463,"x_min":0,"x_max":0,"o":"m 429 207 l 186 -165 l -3 -165 l 168 207 "},"-":{"ha":463,"x_min":0,"x_max":0,"o":"m 521 449 l 485 283 l 90 283 l 126 449 "},".":{"ha":463,"x_min":0,"x_max":0,"o":"m 144 207 l 389 207 l 344 0 l 100 0 "},"/":{"ha":386,"x_min":0,"x_max":0,"o":"m -47 -22 l 478 1010 l 651 1010 l 128 -22 "},":":{"ha":463,"x_min":0,"x_max":0,"o":"m 154 207 l 399 207 l 354 0 l 110 0 m 257 696 l 501 696 l 458 489 l 214 489 "},";":{"ha":463,"x_min":0,"x_max":0,"o":"m 257 696 l 499 696 l 456 489 l 214 489 m 429 207 l 186 -165 l -3 -165 l 168 207 "},"<":{"ha":917,"x_min":0,"x_max":0,"o":"m 186 475 l 994 765 l 950 557 l 396 374 l 872 192 l 828 -19 l 143 272 "},"=":{"ha":917,"x_min":0,"x_max":0,"o":"m 219 636 l 967 636 l 925 440 l 178 440 m 150 307 l 897 307 l 856 111 l 108 111 "},">":{"ha":917,"x_min":0,"x_max":0,"o":"m 82 -19 l 126 192 l 679 374 l 204 557 l 249 765 l 933 475 l 890 272 "},"?":{"ha":772,"x_min":0,"x_max":0,"o":"m 317 1007 b 543 1028 396 1021 469 1028 b 881 760 708 1028 929 988 b 626 490 867 693 853 629 b 513 343 531 431 524 399 l 496 268 l 278 268 l 306 401 b 379 501 313 436 317 449 l 510 613 b 593 724 551 649 582 675 b 436 850 608 794 564 850 b 278 826 361 850 317 838 m 250 207 l 494 207 l 450 0 l 206 0 "},"@":{"ha":1028,"x_min":0,"x_max":0,"o":"m 1018 132 b 549 -24 847 25 708 -24 b 108 493 201 -24 53 226 b 793 1032 174 794 471 1032 b 1186 608 1057 1032 1242 871 b 807 243 1146 418 983 243 b 706 354 768 243 692 261 b 493 235 635 261 554 235 b 344 456 382 235 314 315 b 704 796 381 625 542 796 b 835 710 767 796 821 767 l 864 772 l 1015 772 l 874 490 b 832 396 858 458 835 410 b 872 343 822 350 857 343 b 1089 615 935 343 1054 453 b 776 946 1136 838 974 946 b 208 489 492 946 261 739 b 575 63 160 261 282 63 b 982 200 713 63 856 115 m 769 624 b 722 686 779 668 749 686 b 519 439 631 686 538 524 b 567 344 504 367 535 344 b 663 410 594 344 625 358 b 769 624 686 442 758 569 "},"A":{"ha":1157,"x_min":0,"x_max":0,"o":"m 619 1003 l 958 1003 l 1142 0 l 828 0 l 801 201 l 400 201 l 289 0 l 11 0 m 776 386 l 736 807 l 732 807 l 504 386 "},"B":{"ha":1003,"x_min":0,"x_max":0,"o":"m 297 1003 l 699 1003 b 1029 921 825 1003 954 1003 b 1069 749 1054 892 1088 838 b 807 521 1031 571 860 533 l 806 518 b 994 269 867 507 1039 475 b 807 42 978 192 929 100 b 528 0 719 0 618 0 l 85 0 m 482 599 l 613 599 b 713 611 657 599 686 599 b 785 708 747 629 776 665 b 765 797 792 739 789 775 b 681 821 740 821 710 821 l 529 821 m 394 183 l 549 183 b 717 300 581 183 692 183 b 590 421 742 421 628 421 l 444 421 "},"C":{"ha":1081,"x_min":0,"x_max":0,"o":"m 876 688 b 743 826 886 789 822 826 b 453 489 575 826 492 672 b 603 175 439 428 388 175 b 801 321 750 175 788 282 l 1090 321 b 567 -19 1022 7 697 -19 b 214 114 469 -19 301 -3 b 167 494 129 231 144 390 b 374 876 196 632 257 769 b 786 1024 501 993 640 1024 b 1125 901 949 1024 1064 985 b 1163 688 1188 815 1169 725 "},"D":{"ha":1157,"x_min":0,"x_max":0,"o":"m 314 1003 l 738 1003 b 1103 919 857 1003 1014 990 b 1203 504 1229 818 1235 653 b 831 39 1156 282 1050 118 b 528 0 719 0 597 0 l 101 0 m 428 193 l 547 193 b 917 507 732 194 867 274 b 668 811 981 811 753 811 l 558 813 "},"E":{"ha":926,"x_min":0,"x_max":0,"o":"m 308 1000 l 1061 1000 l 1021 808 l 543 808 l 499 600 l 949 600 l 907 408 l 457 408 l 413 194 l 901 194 l 860 0 l 96 0 "},"F":{"ha":849,"x_min":0,"x_max":0,"o":"m 311 1000 l 1021 1000 l 979 807 l 546 807 l 497 574 l 900 574 l 858 381 l 456 381 l 375 0 l 99 0 "},"G":{"ha":1157,"x_min":0,"x_max":0,"o":"m 929 703 b 783 836 935 807 860 836 b 453 501 593 836 488 669 b 679 168 403 267 511 168 b 836 185 731 168 783 175 l 878 379 l 665 379 l 706 569 l 1179 569 l 1065 33 b 611 -22 913 -1 760 -22 b 258 82 503 -22 356 -6 b 160 496 150 178 125 336 b 394 894 185 617 257 785 b 838 1028 538 1007 717 1028 b 1179 911 994 1028 1117 994 b 1211 703 1236 835 1219 751 "},"H":{"ha":1081,"x_min":0,"x_max":0,"o":"m 303 1003 l 583 1003 l 501 611 l 836 611 l 918 1003 l 1200 1003 l 988 0 l 706 0 l 792 406 l 456 406 l 369 0 l 90 0 "},"I":{"ha":463,"x_min":0,"x_max":0,"o":"m 296 1003 l 582 1003 l 369 0 l 83 0 "},"J":{"ha":849,"x_min":0,"x_max":0,"o":"m 351 321 b 414 179 343 279 319 179 b 547 329 515 179 536 276 l 690 1003 l 972 1003 l 832 339 b 713 97 822 297 792 172 b 372 -22 604 -3 465 -22 b 76 114 253 -22 129 7 b 75 321 44 179 64 271 "},"K":{"ha":1081,"x_min":0,"x_max":0,"o":"m 318 1003 l 600 1003 l 507 563 l 921 1003 l 1250 1003 l 811 561 l 1065 0 l 721 0 l 501 533 l 388 0 l 106 0 "},"L":{"ha":849,"x_min":0,"x_max":0,"o":"m 306 1003 l 588 1003 l 417 197 l 867 197 l 825 0 l 93 0 "},"M":{"ha":1389,"x_min":0,"x_max":0,"o":"m 300 1003 l 738 1003 l 761 324 l 1063 1003 l 1500 1004 l 1288 0 l 1025 0 l 1217 842 l 800 0 l 550 0 l 501 849 l 328 0 l 88 0 "},"N":{"ha":1157,"x_min":0,"x_max":0,"o":"m 306 1003 l 689 1003 l 869 256 l 1025 1003 l 1268 1003 l 1056 0 l 681 0 l 500 779 l 338 0 l 93 0 "},"O":{"ha":1157,"x_min":0,"x_max":0,"o":"m 161 497 b 382 892 175 564 229 764 b 804 1031 536 1019 731 1031 b 1199 499 1204 1031 1251 743 b 565 -24 1114 99 804 -24 b 161 497 299 -24 82 124 m 447 499 b 613 181 414 339 428 181 b 913 503 811 181 883 364 b 903 757 942 643 924 713 b 751 829 874 813 813 829 b 447 499 568 829 485 671 "},"P":{"ha":1003,"x_min":0,"x_max":0,"o":"m 314 1003 l 775 1003 b 1026 951 853 1003 954 1003 b 1110 679 1100 900 1138 810 b 900 406 1072 503 943 426 b 638 363 813 363 692 363 l 457 361 l 381 0 l 101 0 m 499 553 l 622 553 b 828 688 690 553 800 553 b 676 817 854 810 757 817 l 554 817 "},"Q":{"ha":1157,"x_min":0,"x_max":0,"o":"m 1139 1 b 739 -3 851 3 818 1 b 526 -12 704 -4 556 -12 b 160 478 242 -12 99 190 b 307 807 185 593 229 707 b 803 1029 457 999 676 1029 b 1147 894 996 1029 1086 972 b 1207 539 1240 774 1226 626 b 932 157 1154 288 993 193 b 1178 181 961 165 1044 186 m 447 499 b 613 181 414 339 428 181 b 913 501 807 181 882 357 b 903 757 940 635 925 708 b 751 829 875 813 814 829 b 447 499 568 829 485 671 "},"R":{"ha":1003,"x_min":0,"x_max":0,"o":"m 303 1003 l 767 1003 b 1060 931 947 1003 1014 992 b 1089 736 1085 900 1111 844 b 957 550 1065 626 1011 579 b 793 499 885 510 822 503 l 792 493 b 968 247 986 488 978 401 b 963 0 963 179 954 71 l 661 0 b 676 226 657 61 667 138 b 569 392 689 347 694 392 l 453 392 l 369 0 l 90 0 m 492 572 l 596 572 b 713 581 657 572 688 572 b 810 694 778 600 803 663 b 647 818 836 818 728 818 l 543 818 "},"S":{"ha":1003,"x_min":0,"x_max":0,"o":"m 406 319 b 542 164 399 279 376 164 b 715 278 565 164 690 164 b 649 375 725 325 713 357 l 417 439 b 226 714 351 457 182 504 b 715 1028 261 876 415 1028 b 1057 708 1107 1028 1079 815 l 775 708 b 674 847 782 739 807 847 b 519 742 593 847 532 801 b 599 639 503 668 560 650 l 775 590 b 1006 301 901 556 1051 514 b 494 -22 958 78 746 -22 b 156 97 390 -22 225 -6 b 126 319 99 178 118 276 "},"T":{"ha":926,"x_min":0,"x_max":0,"o":"m 490 804 l 185 804 l 226 1003 l 1125 1003 l 1083 804 l 771 804 l 600 0 l 319 0 "},"U":{"ha":1157,"x_min":0,"x_max":0,"o":"m 593 1003 l 467 407 b 467 256 456 353 447 297 b 621 174 493 200 553 174 b 872 417 797 174 850 317 l 996 1003 l 1267 1003 l 1144 422 b 1001 117 1121 311 1079 190 b 568 -26 879 -3 694 -26 b 190 432 94 -26 156 268 l 313 1003 "},"V":{"ha":1081,"x_min":0,"x_max":0,"o":"m 225 1003 l 532 1003 l 606 276 l 1000 1003 l 1276 1003 l 699 0 l 367 0 "},"W":{"ha":1389,"x_min":0,"x_max":0,"o":"m 224 1003 l 500 1003 l 439 272 l 757 1003 l 1097 1003 l 1093 278 l 1339 1003 l 1590 1003 l 1206 0 l 872 0 l 857 743 l 514 0 l 182 0 "},"X":{"ha":1157,"x_min":0,"x_max":0,"o":"m 336 0 l 11 0 l 503 522 l 251 1003 l 610 1003 l 740 692 l 1008 1003 l 1328 1003 l 871 528 l 1133 0 l 778 0 l 635 357 "},"Y":{"ha":1081,"x_min":0,"x_max":0,"o":"m 543 1003 l 674 582 l 989 1003 l 1275 1003 l 746 354 l 671 0 l 390 0 l 468 367 l 221 1003 "},"Z":{"ha":926,"x_min":0,"x_max":0,"o":"m 71 221 l 694 807 l 222 807 l 264 1000 l 1081 1000 l 1035 786 l 393 194 l 921 194 l 879 0 l 24 0 "},"[":{"ha":463,"x_min":0,"x_max":0,"o":"m 304 1049 l 690 1049 l 661 907 l 471 907 l 272 -26 l 463 -26 l 432 -171 l 46 -171 "},"\\":{"ha":386,"x_min":0,"x_max":0,"o":"m 172 1010 l 346 1010 l 432 -22 l 257 -22 "},"]":{"ha":463,"x_min":0,"x_max":0,"o":"m -25 -26 l 164 -26 l 363 907 l 174 907 l 203 1049 l 589 1049 l 331 -171 l -56 -171 "},"^":{"ha":917,"x_min":0,"x_max":0,"o":"m 582 1003 l 760 1003 l 885 397 l 676 397 l 619 765 l 410 397 l 201 397 "},"_":{"ha":694,"x_min":0,"x_max":0,"o":"m -22 -104 l 672 -104 l 657 -174 l -37 -174 "},"‘":{"ha":463,"x_min":0,"x_max":0,"o":"m 175 633 l 418 1003 l 604 1003 l 433 633 "},"a":{"ha":849,"x_min":0,"x_max":0,"o":"m 528 0 b 540 100 528 25 532 56 b 288 -14 499 53 431 -14 b 88 203 117 -14 61 79 b 617 450 128 393 319 463 b 560 594 633 525 639 594 b 444 489 511 594 460 568 l 194 489 b 279 635 203 521 215 581 b 588 722 346 690 461 722 b 839 642 650 722 781 714 b 861 458 875 599 878 533 l 792 133 b 778 0 782 83 781 69 m 589 329 b 350 226 478 328 371 326 b 425 132 339 175 363 132 b 542 199 453 132 504 143 b 589 329 572 243 585 300 "},"b":{"ha":926,"x_min":0,"x_max":0,"o":"m 560 1003 l 479 624 b 719 715 571 714 694 715 b 947 569 853 715 919 644 b 946 353 971 504 961 428 b 797 78 917 217 868 140 b 558 -15 701 -7 611 -15 b 351 103 513 -15 413 -11 l 321 0 l 76 0 b 122 174 100 79 121 169 l 297 1003 m 414 353 b 501 142 404 307 378 142 b 676 354 632 142 667 308 b 596 564 692 425 713 564 b 414 353 467 564 425 404 "},"c":{"ha":849,"x_min":0,"x_max":0,"o":"m 635 453 b 568 572 649 518 636 572 b 403 353 472 572 429 475 b 471 131 364 172 406 131 b 596 272 560 131 585 219 l 860 272 b 446 -17 824 96 657 -17 b 133 353 224 -17 81 101 b 600 721 192 628 404 721 b 861 621 675 721 799 708 b 893 453 907 557 899 493 "},"d":{"ha":926,"x_min":0,"x_max":0,"o":"m 1050 1003 l 875 174 b 844 0 863 115 853 58 l 597 0 l 614 103 b 351 -17 578 63 506 -17 b 121 349 111 -17 85 178 b 267 618 153 497 208 567 b 515 713 344 686 428 713 b 707 615 632 713 672 664 l 789 1003 m 476 138 b 654 351 571 138 628 232 b 569 560 679 468 661 560 b 392 347 453 560 406 413 b 476 138 378 281 361 138 "},"e":{"ha":849,"x_min":0,"x_max":0,"o":"m 356 296 b 453 126 349 258 319 126 b 594 228 522 126 574 163 l 838 228 b 422 -15 781 53 603 -15 b 124 338 179 -15 74 107 b 576 722 172 571 319 722 b 869 544 771 722 843 643 b 856 296 888 485 882 418 m 640 438 b 546 583 646 478 660 583 b 389 438 432 583 399 471 "},"f":{"ha":617,"x_min":0,"x_max":0,"o":"m 769 831 b 699 839 760 833 733 839 b 565 694 592 839 576 753 l 733 694 l 697 525 l 529 525 l 418 0 l 163 0 l 274 525 l 139 525 l 175 694 l 314 694 b 653 1007 346 861 379 1007 b 806 999 724 1007 776 1001 "},"g":{"ha":926,"x_min":0,"x_max":0,"o":"m 989 701 l 851 51 b 688 -197 833 -32 796 -131 b 383 -275 618 -240 526 -275 b 110 -193 304 -275 175 -264 b 79 -37 61 -139 74 -74 l 325 -37 b 342 -101 321 -64 325 -86 b 421 -126 357 -117 383 -126 b 596 43 551 -126 579 -32 l 615 135 b 365 22 521 29 406 22 b 129 368 218 22 75 114 b 515 714 169 557 303 714 b 721 596 650 714 699 651 l 743 701 m 661 374 b 576 568 669 410 703 568 b 400 371 489 568 425 488 b 490 176 383 297 375 176 b 661 374 615 176 651 324 "},"h":{"ha":926,"x_min":0,"x_max":0,"o":"m 303 1003 l 567 1003 l 486 621 b 724 713 519 649 597 713 b 903 642 792 713 857 694 b 922 406 960 579 943 503 l 836 0 l 576 0 l 656 375 b 585 547 668 433 693 547 b 454 450 501 547 467 478 b 418 315 440 418 431 374 l 351 0 l 90 0 "},"i":{"ha":463,"x_min":0,"x_max":0,"o":"m 306 1000 l 572 1000 l 533 814 l 267 814 m 244 697 l 506 697 l 357 0 l 96 0 "},"j":{"ha":463,"x_min":0,"x_max":0,"o":"m -14 -99 b 103 14 76 -110 89 -50 l 249 697 l 513 697 l 354 -47 b 42 -272 319 -211 240 -272 b -50 -269 8 -272 -10 -272 m 311 1000 l 578 1000 l 539 814 l 272 814 "},"k":{"ha":926,"x_min":0,"x_max":0,"o":"m 315 1003 l 571 1003 l 442 389 l 746 697 l 1035 697 l 735 403 l 921 0 l 607 0 l 440 388 l 358 0 l 103 0 "},"l":{"ha":463,"x_min":0,"x_max":0,"o":"m 308 1003 l 569 1003 l 357 0 l 96 0 "},"m":{"ha":1389,"x_min":0,"x_max":0,"o":"m 199 539 b 228 697 203 556 224 676 l 486 697 l 464 582 b 728 714 533 672 622 714 b 919 585 768 714 900 707 b 1193 715 1008 693 1121 715 b 1390 607 1324 715 1372 647 b 1379 382 1415 547 1397 463 l 1299 0 l 1038 0 l 1121 394 b 1050 549 1136 465 1154 549 b 940 490 1015 549 974 536 b 906 392 928 474 918 451 l 822 0 l 561 0 l 646 397 b 574 549 658 460 678 549 b 431 397 485 549 447 475 l 346 0 l 85 0 "},"n":{"ha":926,"x_min":0,"x_max":0,"o":"m 206 549 l 231 697 l 492 697 l 471 590 b 729 713 514 643 585 713 b 924 422 985 713 943 518 l 833 0 l 572 0 l 657 400 b 582 547 668 449 689 547 b 433 400 465 547 439 425 l 349 0 l 89 0 "},"o":{"ha":926,"x_min":0,"x_max":0,"o":"m 128 351 b 614 721 174 565 338 721 b 940 360 840 721 993 607 b 781 83 919 258 868 156 b 471 -17 710 26 614 -17 b 171 86 317 -17 225 21 b 128 351 107 163 110 267 m 399 350 b 396 185 389 304 378 236 b 486 129 415 132 463 129 b 669 350 600 129 649 253 b 583 572 694 471 688 572 b 399 350 468 572 421 454 "},"p":{"ha":926,"x_min":0,"x_max":0,"o":"m 482 697 l 464 599 b 717 715 496 633 571 715 b 942 363 833 715 1003 649 b 551 -14 885 92 710 -14 b 363 83 428 -14 385 49 l 289 -264 l 28 -264 l 207 583 b 226 697 221 660 221 668 m 414 351 b 496 142 401 296 376 142 b 675 365 606 142 653 261 b 593 565 689 432 704 565 b 414 351 460 565 422 392 "},"q":{"ha":926,"x_min":0,"x_max":0,"o":"m 732 697 l 985 697 b 963 621 978 674 976 668 b 953 583 960 613 956 592 l 774 -264 l 514 -264 l 589 89 b 347 -14 554 56 482 -14 b 117 342 197 -14 63 86 b 499 713 158 538 293 713 b 707 596 643 713 688 632 m 467 136 b 647 351 590 136 633 289 b 561 561 660 413 685 561 b 389 347 447 561 406 424 b 467 136 375 281 358 136 "},"r":{"ha":617,"x_min":0,"x_max":0,"o":"m 210 549 l 235 697 l 489 697 l 463 553 b 740 703 554 708 681 704 l 692 479 b 638 483 663 482 656 483 b 415 296 478 483 432 371 l 353 0 l 93 0 "},"s":{"ha":772,"x_min":0,"x_max":0,"o":"m 347 226 b 344 164 344 214 339 188 b 411 121 350 142 367 121 b 506 192 471 121 500 161 b 424 269 517 240 479 254 l 290 310 b 161 499 250 321 131 356 b 279 657 176 568 226 626 b 539 717 349 700 436 717 b 807 482 689 717 838 676 l 560 482 b 564 550 564 503 569 529 b 500 588 558 572 542 588 b 410 526 460 588 418 569 b 465 460 400 486 426 471 l 640 408 b 764 217 704 390 793 353 b 379 -19 714 -19 440 -19 b 89 226 238 -19 38 1 "},"t":{"ha":617,"x_min":0,"x_max":0,"o":"m 718 694 l 683 528 l 515 528 l 464 286 b 539 161 447 200 439 161 b 604 165 560 161 572 161 l 569 1 b 397 -11 533 -4 486 -11 b 192 193 189 -11 163 58 l 263 528 l 131 528 l 165 694 l 301 694 l 325 803 l 597 903 l 553 694 "},"u":{"ha":926,"x_min":0,"x_max":0,"o":"m 497 697 l 410 290 b 486 154 401 251 382 154 b 625 293 596 154 617 254 l 711 697 l 972 697 l 849 121 b 828 0 839 61 838 54 l 571 0 l 589 108 b 343 -12 493 -4 404 -12 b 154 304 101 -12 125 171 l 238 697 "},"v":{"ha":849,"x_min":0,"x_max":0,"o":"m 161 697 l 442 697 l 476 208 l 729 697 l 975 697 l 563 0 l 278 0 "},"w":{"ha":1311,"x_min":0,"x_max":0,"o":"m 158 697 l 425 697 l 433 203 l 663 697 l 954 697 l 971 206 l 1200 697 l 1433 697 l 1065 0 l 774 0 l 749 486 l 508 0 l 222 0 "},"x":{"ha":849,"x_min":0,"x_max":0,"o":"m 193 697 l 497 697 l 540 483 l 679 697 l 946 697 l 661 364 l 819 0 l 511 0 l 457 258 l 286 0 l 17 0 l 329 364 "},"y":{"ha":849,"x_min":0,"x_max":0,"o":"m 392 -264 l 149 -264 l 299 -22 l 160 697 l 442 697 l 478 213 l 732 697 l 975 697 "},"z":{"ha":772,"x_min":0,"x_max":0,"o":"m 93 176 l 503 528 l 183 528 l 218 696 l 835 696 l 799 524 l 383 165 l 739 165 l 704 0 l 56 0 "},"{":{"ha":463,"x_min":0,"x_max":0,"o":"m 82 504 b 279 683 236 526 267 626 l 285 715 b 710 1049 318 868 361 1031 l 683 924 b 488 721 529 914 506 804 l 482 690 b 381 506 463 601 436 553 b 200 439 317 447 240 442 b 356 372 254 432 315 425 b 375 188 400 317 386 240 l 368 157 b 478 -46 350 75 326 -40 l 451 -171 b 188 -82 318 -164 239 -137 b 168 163 153 -42 135 4 l 175 194 b 54 374 189 263 206 346 "},"|":{"ha":681,"x_min":0,"x_max":0,"o":"m 525 1136 l 525 -378 l 361 -378 l 361 1136 "},"}":{"ha":463,"x_min":0,"x_max":0,"o":"m 567 374 b 371 194 414 351 382 251 l 364 163 b -61 -171 331 10 289 -153 l -35 -46 b 161 157 119 -36 143 74 l 168 188 b 268 372 186 276 214 325 b 449 439 332 431 410 436 b 293 504 394 446 333 453 b 275 690 249 561 264 638 l 281 721 b 171 924 299 803 322 918 l 197 1049 b 461 960 331 1042 410 1015 b 481 715 497 919 515 874 l 475 683 b 594 504 460 615 443 532 "},"~":{"ha":917,"x_min":0,"x_max":0,"o":"m 124 239 b 397 515 168 407 288 515 b 589 465 422 515 449 511 b 728 432 642 449 690 432 b 825 511 794 432 814 483 l 953 511 b 676 232 917 383 825 232 b 442 296 629 232 547 260 b 344 318 432 299 375 318 b 250 239 299 318 265 283 "},"¡":{"ha":617,"x_min":0,"x_max":0,"o":"m 504 450 l 406 -254 l 104 -254 l 304 450 m 296 540 l 340 749 l 590 749 l 546 540 "},"¢":{"ha":926,"x_min":0,"x_max":0,"o":"m 700 894 l 893 894 l 794 692 b 929 450 886 651 953 561 l 658 450 b 583 538 669 492 661 538 b 432 349 486 538 449 426 b 503 160 415 271 406 160 b 625 269 586 160 608 215 l 896 269 b 731 49 871 172 807 97 b 472 -21 656 0 564 -24 l 369 -217 l 176 -217 l 289 18 b 164 363 154 88 131 206 b 610 718 218 617 401 703 "},"£":{"ha":926,"x_min":0,"x_max":0,"o":"m 82 163 l 185 163 l 250 468 l 117 468 l 150 626 l 283 626 b 753 1031 314 772 371 1031 b 1049 721 1110 1031 1067 810 l 792 721 b 713 871 803 771 824 871 b 543 626 593 871 568 750 l 744 626 l 711 468 l 510 468 l 444 163 l 883 163 l 849 0 l 47 0 "},"⁄":{"ha":232,"x_min":0,"x_max":0,"o":"m -212 0 l 503 982 l 654 982 l -61 0 "},"¥":{"ha":926,"x_min":0,"x_max":0,"o":"m 326 0 l 363 167 l 111 167 l 149 347 l 397 347 l 372 422 l 165 422 l 203 603 l 326 603 l 217 961 l 496 961 l 582 582 l 839 961 l 1118 961 l 849 603 l 979 603 l 942 422 l 735 422 l 676 347 l 925 347 l 888 167 l 626 167 l 590 0 "},"ƒ":{"ha":926,"x_min":0,"x_max":0,"o":"m 793 421 l 663 421 l 489 -11 b 135 -275 413 -211 308 -275 b -11 -264 85 -275 35 -274 l 58 -94 b 203 -22 115 -99 169 -103 l 386 421 l 251 421 l 325 601 l 456 601 b 872 982 544 796 569 982 b 1004 972 917 982 963 979 l 935 797 b 732 601 788 825 783 710 l 865 601 "},"§":{"ha":926,"x_min":0,"x_max":0,"o":"m 203 160 b 392 126 279 132 346 126 b 549 189 508 126 542 154 b 474 258 556 221 528 238 l 349 306 b 228 483 232 349 211 407 b 424 685 246 569 300 629 b 338 846 397 696 314 733 b 672 1031 376 1025 601 1031 b 911 1008 750 1031 868 1014 l 878 850 b 710 881 806 876 747 881 b 599 832 654 881 607 867 b 663 769 592 800 619 786 l 807 715 b 911 526 890 685 932 629 b 740 339 897 467 861 394 b 821 181 790 308 840 272 b 449 -28 776 -28 506 -28 b 169 3 438 -28 279 -28 m 600 392 b 674 501 626 417 664 458 b 564 631 688 567 636 593 b 476 526 500 585 482 556 b 600 392 461 454 529 421 "},"¤":{"ha":917,"x_min":0,"x_max":0,"o":"m 260 332 b 251 485 250 364 236 410 b 325 639 267 558 303 608 l 251 732 l 393 849 l 467 756 b 628 796 501 772 556 796 b 774 756 704 796 746 771 l 885 849 l 976 732 l 865 639 b 872 485 872 614 889 560 b 800 332 856 407 817 354 l 874 239 l 732 122 l 658 215 b 497 175 622 199 572 175 b 351 215 424 175 379 199 l 239 122 l 147 239 m 590 622 b 424 486 515 622 440 561 b 532 349 408 410 456 349 b 699 486 608 349 683 410 b 590 622 715 563 665 622 "},"'":{"ha":463,"x_min":0,"x_max":0,"o":"m 289 593 l 326 963 l 544 963 l 426 593 "},"“":{"ha":926,"x_min":0,"x_max":0,"o":"m 261 633 l 506 1003 l 692 1003 l 521 633 m 597 633 l 842 1003 l 1028 1003 l 857 633 "},"«":{"ha":926,"x_min":0,"x_max":0,"o":"m 599 624 l 375 351 l 485 82 l 271 82 l 154 354 l 383 624 m 971 624 l 749 351 l 857 82 l 643 82 l 526 354 l 756 624 "},"‹":{"ha":463,"x_min":0,"x_max":0,"o":"m 556 624 l 333 351 l 442 82 l 228 82 l 111 354 l 340 624 "},"›":{"ha":463,"x_min":0,"x_max":0,"o":"m 54 82 l 276 354 l 168 624 l 382 624 l 499 351 l 269 82 "},"ﬁ":{"ha":1003,"x_min":0,"x_max":0,"o":"m 640 0 l 789 697 l 1053 697 l 904 0 m 813 817 l 851 1003 l 1118 1003 l 1079 817 m 158 0 l 271 531 l 140 531 l 176 697 l 310 697 b 668 1019 350 931 431 1019 b 806 1003 715 1019 761 1013 l 771 838 b 701 853 749 844 725 853 b 571 697 613 853 585 775 l 733 697 l 697 531 l 535 531 l 422 0 "},"ﬂ":{"ha":1003,"x_min":0,"x_max":0,"o":"m 640 0 l 853 1003 l 1117 1003 l 904 0 m 158 0 l 271 531 l 140 531 l 176 697 l 310 697 b 668 1019 350 931 431 1019 b 806 1003 715 1019 761 1013 l 771 838 b 701 853 749 844 725 853 b 571 697 613 853 585 775 l 733 697 l 697 531 l 535 531 l 422 0 "},"–":{"ha":694,"x_min":0,"x_max":0,"o":"m 97 460 l 792 460 l 754 283 l 60 283 "},"†":{"ha":926,"x_min":0,"x_max":0,"o":"m 240 613 l 276 786 l 514 786 l 560 1003 l 776 1003 l 731 786 l 964 786 l 928 613 l 694 613 l 564 0 l 347 0 l 478 613 "},"‡":{"ha":926,"x_min":0,"x_max":0,"o":"m 190 382 l 428 382 l 479 624 l 242 624 l 279 797 l 517 797 l 560 1003 l 776 1003 l 733 797 l 967 797 l 929 624 l 696 624 l 644 382 l 878 382 l 842 208 l 608 208 l 564 0 l 347 0 l 392 208 l 154 208 "},"·":{"ha":463,"x_min":0,"x_max":0,"o":"m 204 490 l 449 490 l 404 283 l 160 283 "},"¶":{"ha":1181,"x_min":0,"x_max":0,"o":"m 1119 847 l 886 -247 l 697 -247 l 931 847 l 807 847 l 574 -247 l 385 -247 l 510 339 b 344 411 463 344 396 353 b 304 650 293 472 286 561 b 747 1003 338 806 468 1003 l 1221 1003 l 1189 847 "},"•":{"ha":694,"x_min":0,"x_max":0,"o":"m 507 753 b 706 501 644 753 735 640 b 400 251 676 364 539 251 b 203 501 261 251 174 364 b 507 753 232 642 369 753 "},"‚":{"ha":463,"x_min":0,"x_max":0,"o":"m 157 193 l 396 193 l 179 -135 l 3 -135 "},"„":{"ha":926,"x_min":0,"x_max":0,"o":"m 257 193 l 494 193 l 279 -135 l 103 -135 m 586 193 l 825 193 l 608 -135 l 432 -135 "},"”":{"ha":926,"x_min":0,"x_max":0,"o":"m 693 1003 l 450 633 l 264 633 l 435 1003 m 1029 1003 l 786 633 l 600 633 l 771 1003 "},"»":{"ha":926,"x_min":0,"x_max":0,"o":"m 97 82 l 319 354 l 211 624 l 425 624 l 542 351 l 313 82 m 469 82 l 692 354 l 583 624 l 797 624 l 914 351 l 685 82 "},"…":{"ha":1389,"x_min":0,"x_max":0,"o":"m 154 207 l 399 207 l 354 0 l 110 0 m 617 207 l 861 207 l 817 0 l 572 0 m 1079 207 l 1324 207 l 1279 0 l 1035 0 "},"‰":{"ha":1389,"x_min":0,"x_max":0,"o":"m 182 768 b 438 1013 213 914 301 1013 b 583 776 564 1013 614 922 b 489 594 574 733 550 650 b 332 533 433 543 372 533 b 199 592 285 533 232 546 b 182 768 161 644 172 725 m 328 771 b 354 639 314 703 308 639 b 436 781 403 639 426 733 b 410 904 458 881 442 904 b 328 771 375 904 349 871 m 544 226 b 800 471 575 372 664 471 b 947 235 928 471 978 381 b 853 53 938 192 914 108 b 696 -8 796 1 735 -8 b 563 50 649 -8 594 4 b 544 226 525 103 535 183 m 692 229 b 718 97 678 161 671 97 b 801 239 767 97 790 192 b 774 363 822 339 806 363 b 692 229 739 363 713 329 m 1010 226 b 1265 471 1040 372 1128 471 b 1411 235 1392 471 1442 381 b 1317 53 1401 192 1379 108 b 1160 -8 1261 1 1200 -8 b 1026 50 1113 -8 1060 4 b 1010 226 989 103 1000 183 m 1156 229 b 1182 97 1142 161 1136 97 b 1265 239 1231 97 1254 192 b 1238 363 1286 339 1269 363 b 1156 229 1203 363 1176 329 m 925 1033 l 1061 1033 l 197 -28 l 58 -28 "},"¿":{"ha":772,"x_min":0,"x_max":0,"o":"m 661 485 b 531 229 626 349 660 335 b 350 25 488 193 365 99 b 506 -94 329 -71 429 -94 b 658 -74 556 -94 607 -89 l 619 -254 b 393 -275 544 -268 467 -275 b 51 -7 232 -275 4 -232 b 299 256 79 122 189 183 b 425 417 381 307 406 328 l 439 485 m 438 540 l 482 749 l 732 749 l 688 540 "},"`":{"ha":463,"x_min":0,"x_max":0,"o":"m 144 1008 l 433 1008 l 539 807 l 360 807 "},"´":{"ha":463,"x_min":0,"x_max":0,"o":"m 450 807 l 267 807 l 464 1008 l 747 1008 "},"ˆ":{"ha":463,"x_min":0,"x_max":0,"o":"m 557 1008 l 681 807 l 500 807 l 421 914 l 294 807 l 114 807 l 322 1008 "},"˜":{"ha":463,"x_min":0,"x_max":0,"o":"m 93 807 b 182 947 108 860 139 910 b 340 1010 225 985 281 1010 b 438 990 376 1010 401 1001 l 538 960 b 579 951 554 954 565 951 b 636 1006 619 951 632 992 l 749 1006 b 511 806 715 897 615 806 b 444 818 488 806 463 813 l 338 851 b 281 863 301 863 290 863 b 201 807 228 863 207 818 "},"¯":{"ha":463,"x_min":0,"x_max":0,"o":"m 167 958 l 697 958 l 675 853 l 144 853 "},"˘":{"ha":463,"x_min":0,"x_max":0,"o":"m 286 1008 b 424 913 282 976 297 913 b 603 1008 549 913 586 978 l 710 1008 b 625 874 699 975 682 926 b 397 794 546 801 440 794 b 225 842 335 794 264 810 b 172 1008 178 879 163 943 "},"˙":{"ha":463,"x_min":0,"x_max":0,"o":"m 326 1008 l 564 1008 l 521 807 l 283 807 "},"¨":{"ha":463,"x_min":0,"x_max":0,"o":"m 508 1008 l 746 1008 l 703 807 l 465 807 m 143 1008 l 381 1008 l 338 807 l 100 807 "},"˚":{"ha":463,"x_min":0,"x_max":0,"o":"m 581 907 b 392 751 563 821 478 751 b 269 907 306 751 251 822 b 458 1064 288 993 371 1064 b 581 907 544 1064 599 993 m 499 907 b 440 982 507 949 481 982 b 351 907 399 982 360 949 b 410 833 343 867 368 833 b 499 907 450 833 490 867 "},"¸":{"ha":463,"x_min":0,"x_max":0,"o":"m 264 13 l 190 -86 b 238 -82 200 -85 215 -82 b 353 -185 332 -82 364 -133 b 139 -303 342 -235 289 -303 b -12 -275 110 -303 46 -301 l 18 -212 b 142 -243 35 -221 76 -243 b 226 -189 160 -243 215 -243 b 168 -137 235 -153 200 -137 b 113 -150 146 -137 129 -143 l 86 -122 l 196 13 "},"˝":{"ha":926,"x_min":0,"x_max":0,"o":"m 878 807 l 694 807 l 892 1008 l 1175 1008 m 488 807 l 304 807 l 501 1008 l 785 1008 "},"˛":{"ha":463,"x_min":0,"x_max":0,"o":"m 306 -265 b 172 -301 254 -289 224 -301 b 58 -197 71 -301 49 -243 b 263 1 74 -126 154 -47 l 325 1 b 203 -133 275 -32 215 -69 b 261 -215 186 -208 238 -215 b 321 -199 288 -215 304 -207 "},"ˇ":{"ha":463,"x_min":0,"x_max":0,"o":"m 550 1008 l 726 1008 l 517 807 l 285 807 l 163 1008 l 338 1008 l 422 899 "},"—":{"ha":1389,"x_min":0,"x_max":0,"o":"m 278 460 l 1306 460 l 1268 283 l 240 283 "},"Æ":{"ha":1389,"x_min":0,"x_max":0,"o":"m 717 199 l 403 199 l 285 0 l 10 0 l 663 1003 l 1535 1003 l 1494 808 l 1053 808 l 1031 601 l 1410 601 l 1368 407 l 1010 407 l 986 194 l 1364 194 l 1322 0 l 697 0 m 515 393 l 740 393 l 788 829 l 781 829 "},"ª":{"ha":510,"x_min":0,"x_max":0,"o":"m 346 728 b 390 678 340 697 357 678 b 474 781 457 678 465 736 b 397 772 456 781 424 779 b 346 728 371 768 351 754 m 442 628 l 439 628 b 317 581 422 610 372 581 b 164 719 215 581 142 624 b 442 878 188 821 332 878 l 496 878 b 467 926 499 892 504 926 b 403 894 428 926 404 906 l 240 894 b 342 999 251 946 292 979 b 503 1024 393 1019 453 1024 b 679 894 596 1024 699 988 l 633 679 b 625 593 629 661 628 643 l 440 593 "},"Ł":{"ha":849,"x_min":0,"x_max":0,"o":"m 174 381 l 51 318 l 79 453 l 203 517 l 306 1003 l 588 1003 l 519 678 l 801 822 l 772 688 l 490 543 l 417 197 l 867 197 l 825 0 l 93 0 "},"Ø":{"ha":1157,"x_min":0,"x_max":0,"o":"m 1122 918 l 1285 1054 l 1354 956 l 1190 819 b 1206 501 1226 735 1232 628 b 575 -21 1135 171 907 -21 b 278 60 447 -21 347 7 l 113 -78 l 42 18 l 199 149 b 167 501 146 236 135 354 b 797 1024 236 832 465 1024 b 1122 918 943 1024 1053 988 m 481 229 b 617 174 507 194 551 174 b 913 497 806 174 881 349 b 926 600 919 532 926 567 m 908 740 b 756 829 888 794 840 829 b 457 497 567 829 490 654 b 443 351 447 450 440 399 "},"Œ":{"ha":1389,"x_min":0,"x_max":0,"o":"m 1063 601 l 1407 601 l 1365 407 l 1021 407 l 976 194 l 1363 194 l 1321 0 l 557 0 b 149 508 246 -1 82 197 b 525 965 188 696 325 893 b 807 1003 624 1001 710 1003 l 1521 1003 l 1481 808 l 1107 808 m 832 821 b 753 829 806 824 779 829 b 439 503 571 829 478 685 b 614 178 406 349 432 178 b 696 186 640 178 669 183 "},"º":{"ha":556,"x_min":0,"x_max":0,"o":"m 532 803 b 476 926 544 861 543 926 b 367 803 410 926 379 861 b 424 678 354 743 357 678 b 532 803 490 678 519 743 m 497 1024 b 713 803 639 1024 744 957 b 403 581 679 649 544 581 b 186 803 260 581 153 649 b 497 1024 218 957 354 1024 "},"æ":{"ha":1311,"x_min":0,"x_max":0,"o":"m 347 224 b 418 132 338 174 368 132 b 585 332 532 132 565 239 b 436 317 529 332 476 335 b 347 224 393 297 358 272 m 1097 438 b 1088 542 1106 475 1101 513 b 1006 586 1072 571 1046 589 b 853 438 913 582 876 517 m 610 450 b 554 597 622 511 661 601 b 446 503 490 594 450 531 l 197 503 b 356 676 214 588 278 644 b 604 718 435 710 526 718 b 803 622 668 718 758 693 b 1033 718 888 703 981 718 b 1317 296 1317 718 1372 556 l 817 296 b 906 132 796 206 807 132 b 1053 228 979 132 1029 163 l 1303 228 b 1136 36 1278 138 1207 75 b 892 -21 1064 -3 974 -21 b 653 129 786 -21 685 13 b 306 -21 564 7 432 -21 b 74 210 149 -21 39 50 b 504 450 113 379 340 450 "},"ı":{"ha":463,"x_min":0,"x_max":0,"o":"m 100 0 l 249 697 l 513 697 l 364 0 "},"ł":{"ha":463,"x_min":0,"x_max":0,"o":"m 178 386 l 40 306 l 71 450 l 208 531 l 308 1003 l 569 1003 l 506 697 l 643 774 l 613 629 l 474 551 l 357 0 l 96 0 "},"ø":{"ha":926,"x_min":0,"x_max":0,"o":"m 671 514 b 585 565 657 544 631 565 b 403 349 474 565 424 447 b 393 247 396 314 392 278 m 418 167 b 492 132 431 144 456 132 b 672 349 603 132 651 250 b 683 422 678 372 682 397 m 85 -50 l 203 63 b 132 349 135 121 104 215 b 617 718 188 606 399 718 b 829 668 697 718 772 703 l 938 772 l 993 721 l 890 621 b 943 349 947 560 969 471 b 460 -21 889 92 678 -21 b 265 21 386 -21 319 -8 l 140 -100 "},"œ":{"ha":1389,"x_min":0,"x_max":0,"o":"m 397 349 b 486 132 376 250 375 132 b 667 349 597 132 646 250 b 579 565 688 447 690 565 b 397 349 468 565 418 447 m 1186 438 b 1176 542 1194 475 1190 513 b 1094 586 1161 571 1135 589 b 942 438 1001 582 965 517 m 126 349 b 611 718 182 606 393 718 b 872 604 713 718 810 692 b 1122 718 960 696 1058 718 b 1406 296 1406 718 1461 556 l 906 296 b 994 132 885 206 896 132 b 1142 228 1068 132 1118 163 l 1392 228 b 1225 36 1367 138 1296 75 b 981 -21 1153 -3 1063 -21 b 747 104 858 -21 775 29 b 454 -21 635 0 540 -21 b 126 349 236 -21 72 92 "},"ß":{"ha":1081,"x_min":0,"x_max":0,"o":"m 242 714 b 728 1025 308 1025 644 1025 b 1046 793 790 1025 1096 1025 b 936 658 1029 710 981 683 b 840 572 871 624 849 611 b 950 449 831 532 835 518 b 1071 231 1035 397 1099 358 b 700 -18 1043 97 918 -18 b 463 63 632 -18 513 -8 b 442 206 426 115 436 171 l 672 206 b 681 144 667 179 671 158 b 728 122 692 131 708 122 b 822 218 801 122 819 204 b 715 360 838 288 811 303 b 578 546 615 418 557 451 b 706 686 588 594 618 640 b 790 778 751 710 779 725 b 689 882 803 833 778 882 b 496 703 574 882 517 806 l 346 0 l 90 0 "},"¹":{"ha":556,"x_min":0,"x_max":0,"o":"m 333 393 l 421 806 b 253 733 368 776 311 750 l 282 868 b 482 961 353 888 422 919 l 635 961 l 514 393 "},"¬":{"ha":917,"x_min":0,"x_max":0,"o":"m 219 636 l 967 636 l 856 111 l 653 111 l 722 440 l 178 440 "},"µ":{"ha":926,"x_min":0,"x_max":0,"o":"m 279 697 l 474 697 l 400 354 b 476 147 374 229 367 147 b 646 347 599 147 626 253 l 721 697 l 914 697 l 765 0 l 604 0 l 621 79 b 450 -11 590 46 540 -11 b 329 56 365 -11 343 31 l 254 -296 l 68 -296 "},"™":{"ha":1319,"x_min":0,"x_max":0,"o":"m 429 906 l 279 906 l 299 1003 l 743 1003 l 724 906 l 568 906 l 482 501 l 343 501 m 785 1003 l 1000 1003 l 1008 663 l 1160 1003 l 1374 1003 l 1268 501 l 1142 501 l 1236 924 l 1029 501 l 906 501 l 885 924 l 796 501 l 679 501 "},"Ð":{"ha":1157,"x_min":0,"x_max":0,"o":"m 196 486 l 110 486 l 136 606 l 222 606 l 306 1003 l 729 1003 b 1194 501 1074 1003 1272 872 b 517 0 1115 131 861 0 l 93 0 m 413 194 l 543 194 b 903 501 694 194 858 294 b 674 808 946 708 825 808 l 543 808 l 500 606 l 718 606 l 692 486 l 474 486 "},"½":{"ha":1389,"x_min":0,"x_max":0,"o":"m 307 0 l 1022 982 l 1174 982 l 458 0 m 361 393 l 449 806 b 281 733 396 776 339 750 l 310 868 b 510 961 381 888 450 919 l 663 961 l 542 393 m 1289 115 l 1264 0 l 753 0 l 776 108 b 1165 424 863 181 1136 322 b 1108 474 1175 457 1157 474 b 1031 417 1068 474 1036 442 l 854 417 b 1150 589 888 547 1018 589 b 1354 432 1264 589 1379 550 b 992 117 1326 300 1003 125 l 992 115 "},"±":{"ha":917,"x_min":0,"x_max":0,"o":"m 443 393 l 168 393 l 210 588 l 485 588 l 531 803 l 729 803 l 683 588 l 957 588 l 915 393 l 642 393 l 599 189 l 400 189 m 114 140 l 861 140 l 819 -56 l 72 -56 "},"Þ":{"ha":1003,"x_min":0,"x_max":0,"o":"m 314 1003 l 592 1003 l 563 861 l 746 861 b 1083 539 992 861 1136 782 b 608 217 1032 296 854 217 l 425 217 l 379 0 l 101 0 m 467 411 l 610 411 b 792 539 719 411 776 465 b 664 667 808 613 774 667 l 521 667 "},"¼":{"ha":1389,"x_min":0,"x_max":0,"o":"m 1038 226 l 1079 426 l 1075 426 l 894 226 m 1013 111 l 714 111 l 739 226 l 1078 576 l 1292 576 l 1218 226 l 1306 226 l 1281 111 l 1193 111 l 1169 0 l 989 0 m 328 0 l 1043 982 l 1194 982 l 479 0 m 368 393 l 456 806 b 288 733 403 776 346 750 l 317 868 b 517 961 388 888 457 919 l 669 961 l 549 393 "},"÷":{"ha":917,"x_min":0,"x_max":0,"o":"m 185 471 l 932 471 l 890 276 l 143 276 m 394 213 l 614 213 l 568 3 l 349 3 m 507 744 l 726 744 l 682 535 l 463 535 "},"¦":{"ha":682,"x_min":0,"x_max":0,"o":"m 525 1022 l 525 492 l 361 492 l 361 1022 m 525 265 l 525 -264 l 361 -264 l 361 265 "},"°":{"ha":556,"x_min":0,"x_max":0,"o":"m 650 774 b 399 565 626 658 513 565 b 233 774 283 565 210 658 b 486 982 257 888 371 982 b 650 774 600 982 675 888 m 344 769 b 421 676 333 711 364 676 b 539 769 476 676 526 711 b 460 871 550 825 517 871 b 344 769 404 871 354 825 "},"þ":{"ha":926,"x_min":0,"x_max":0,"o":"m 290 1003 l 554 1003 l 469 599 l 472 599 b 724 718 542 681 621 718 b 944 358 931 718 983 542 b 538 -21 901 154 761 -21 b 363 83 460 -21 397 22 l 360 83 l 285 -267 l 21 -267 m 590 565 b 415 349 479 565 435 438 b 497 132 397 260 386 132 b 671 349 608 132 653 260 b 590 565 690 438 701 565 "},"¾":{"ha":1389,"x_min":0,"x_max":0,"o":"m 413 0 l 1128 982 l 1279 982 l 564 0 m 1131 226 l 1175 440 l 1171 440 l 974 226 m 1171 576 l 1385 576 l 1311 226 l 1399 226 l 1374 111 l 1286 111 l 1263 0 l 1082 0 l 1106 111 l 807 111 l 832 226 m 382 749 b 553 825 453 749 535 739 b 492 867 558 851 528 867 b 411 817 454 867 417 843 l 228 817 b 339 944 242 878 285 918 b 518 982 393 971 458 982 b 743 835 621 982 768 956 b 569 697 726 761 646 708 l 568 694 b 694 547 657 685 713 636 b 392 381 667 419 504 381 b 158 560 250 381 144 418 l 340 560 b 351 511 335 538 343 522 b 410 496 363 499 388 496 b 510 560 457 496 499 510 b 357 633 528 647 422 633 "},"²":{"ha":556,"x_min":0,"x_max":0,"o":"m 651 508 l 626 393 l 115 393 l 139 501 b 528 817 225 574 499 715 b 472 867 538 850 521 867 b 393 810 432 867 399 835 l 217 810 b 328 944 233 875 275 918 b 513 982 381 972 447 982 b 717 825 626 982 742 943 b 354 510 689 693 365 518 l 354 508 "},"®":{"ha":1111,"x_min":0,"x_max":0,"o":"m 774 1031 b 1189 503 1060 1031 1251 800 b 550 -22 1128 214 842 -22 b 136 503 258 -22 75 214 b 774 1031 199 800 488 1031 m 754 940 b 228 503 519 940 281 750 b 569 69 176 264 332 69 b 1099 503 813 69 1049 267 b 754 940 1150 746 994 940 m 482 794 l 754 794 b 940 642 851 794 974 794 b 769 503 928 581 886 517 l 769 500 b 872 383 879 497 874 442 b 865 211 864 253 863 247 l 690 211 b 700 347 690 247 693 286 b 636 439 706 414 708 439 l 569 439 l 521 211 l 357 211 m 592 544 l 653 544 b 776 617 706 544 761 544 b 683 689 792 689 731 689 l 622 689 "},"−":{"ha":917,"x_min":0,"x_max":0,"o":"m 200 432 l 900 432 l 865 265 l 165 265 "},"ð":{"ha":926,"x_min":0,"x_max":0,"o":"m 469 1036 b 656 979 524 1024 600 1003 l 743 1042 l 797 992 l 733 947 b 951 383 961 815 999 608 b 460 -21 888 83 679 -21 b 126 322 242 -21 76 83 b 544 667 178 561 369 667 b 700 629 628 667 661 654 l 701 635 b 519 794 653 715 608 746 l 414 718 l 342 757 l 435 824 b 328 856 400 836 364 847 m 397 322 b 489 121 378 231 378 121 b 667 322 600 121 647 231 b 575 525 688 415 686 525 b 397 322 464 525 418 415 "},"×":{"ha":917,"x_min":0,"x_max":0,"o":"m 401 374 l 222 601 l 388 738 l 567 510 l 843 738 l 950 601 l 675 374 l 853 146 l 688 10 l 508 236 l 232 10 l 125 146 "},"³":{"ha":556,"x_min":0,"x_max":0,"o":"m 365 749 b 536 825 436 749 518 739 b 475 867 542 851 511 867 b 394 817 438 867 400 843 l 211 817 b 322 944 225 878 268 918 b 501 982 376 971 442 982 b 726 835 604 982 751 956 b 553 697 710 761 629 708 l 551 694 b 678 547 640 685 696 636 b 375 381 650 419 488 381 b 142 560 233 381 128 418 l 324 560 b 335 511 318 538 326 522 b 393 496 346 499 371 496 b 493 560 440 496 482 510 b 340 633 511 647 406 633 "},"©":{"ha":1111,"x_min":0,"x_max":0,"o":"m 794 1031 b 1208 504 1082 1031 1271 799 b 569 -24 1147 214 861 -24 b 154 504 279 -24 93 213 b 794 1031 217 800 508 1031 m 775 940 b 246 504 536 940 297 747 b 589 68 194 264 347 68 b 1117 504 831 68 1067 265 b 775 940 1168 744 1015 940 m 794 614 b 724 696 800 675 767 696 b 564 494 631 696 586 599 b 644 306 553 447 526 306 b 749 394 719 306 740 368 l 904 394 b 619 190 872 242 749 190 b 431 269 510 190 458 226 b 410 497 388 339 396 429 b 526 726 428 582 464 664 b 750 814 600 800 679 814 b 931 742 832 814 897 794 b 949 614 964 690 954 644 "},"Á":{"ha":1157,"x_min":0,"x_max":0,"o":"m 619 1003 l 958 1003 l 1142 0 l 828 0 l 801 201 l 400 201 l 289 0 l 11 0 m 776 386 l 736 807 l 732 807 l 504 386 m 838 1113 l 654 1113 l 851 1314 l 1135 1314 "},"Â":{"ha":1157,"x_min":0,"x_max":0,"o":"m 619 1003 l 958 1003 l 1142 0 l 828 0 l 801 201 l 400 201 l 289 0 l 11 0 m 776 386 l 736 807 l 732 807 l 504 386 m 969 1314 l 1093 1113 l 913 1113 l 833 1219 l 707 1113 l 526 1113 l 735 1314 "},"Ä":{"ha":1157,"x_min":0,"x_max":0,"o":"m 619 1003 l 958 1003 l 1142 0 l 828 0 l 801 201 l 400 201 l 289 0 l 11 0 m 776 386 l 736 807 l 732 807 l 504 386 m 921 1314 l 1158 1314 l 1115 1113 l 878 1113 m 556 1314 l 793 1314 l 750 1113 l 513 1113 "},"À":{"ha":1157,"x_min":0,"x_max":0,"o":"m 619 1003 l 958 1003 l 1142 0 l 828 0 l 801 201 l 400 201 l 289 0 l 11 0 m 776 386 l 736 807 l 732 807 l 504 386 m 557 1314 l 846 1314 l 951 1113 l 772 1113 "},"Å":{"ha":1157,"x_min":0,"x_max":0,"o":"m 619 1003 l 958 1003 l 1142 0 l 828 0 l 801 201 l 400 201 l 289 0 l 11 0 m 776 386 l 736 807 l 732 807 l 504 386 m 993 1213 b 804 1057 974 1126 890 1057 b 682 1213 718 1057 664 1128 b 871 1369 700 1299 783 1369 b 993 1213 957 1369 1011 1299 m 911 1213 b 853 1288 919 1254 893 1288 b 764 1213 811 1288 772 1254 b 821 1139 754 1172 779 1139 b 911 1213 861 1139 901 1172 "},"Ã":{"ha":1157,"x_min":0,"x_max":0,"o":"m 619 1003 l 958 1003 l 1142 0 l 828 0 l 801 201 l 400 201 l 289 0 l 11 0 m 776 386 l 736 807 l 732 807 l 504 386 m 489 1113 b 578 1253 503 1165 535 1215 b 735 1315 619 1290 675 1315 b 832 1296 771 1315 797 1307 l 933 1265 b 974 1257 950 1260 960 1257 b 1032 1311 1014 1257 1028 1297 l 1144 1311 b 907 1111 1111 1203 1011 1111 b 840 1124 883 1111 858 1118 l 733 1157 b 676 1168 697 1168 686 1168 b 597 1113 624 1168 603 1124 "},"Ç":{"ha":1081,"x_min":0,"x_max":0,"o":"m 1090 321 b 576 -19 1029 38 761 -15 l 526 -86 b 574 -82 536 -85 551 -82 b 689 -185 669 -82 700 -133 b 476 -303 678 -235 625 -303 b 324 -275 446 -303 382 -301 l 354 -212 b 478 -243 371 -221 414 -243 b 563 -189 496 -243 551 -243 b 504 -137 571 -153 536 -137 b 449 -150 482 -137 465 -143 l 422 -122 l 507 -17 b 276 54 419 -10 339 10 b 167 494 126 163 139 364 b 374 876 196 632 257 769 b 786 1024 501 993 640 1024 b 1125 901 949 1024 1064 985 b 1163 688 1188 815 1169 725 l 876 688 b 743 826 886 789 822 826 b 453 489 575 826 492 672 b 603 175 439 428 388 175 b 801 321 750 175 788 282 "},"É":{"ha":926,"x_min":0,"x_max":0,"o":"m 308 1000 l 1061 1000 l 1021 808 l 543 808 l 499 600 l 949 600 l 907 408 l 457 408 l 413 194 l 901 194 l 860 0 l 96 0 m 747 1113 l 564 1113 l 761 1314 l 1044 1314 "},"Ê":{"ha":926,"x_min":0,"x_max":0,"o":"m 308 1000 l 1061 1000 l 1021 808 l 543 808 l 499 600 l 949 600 l 907 408 l 457 408 l 413 194 l 901 194 l 860 0 l 96 0 m 854 1314 l 978 1113 l 797 1113 l 718 1219 l 592 1113 l 411 1113 l 619 1314 "},"Ë":{"ha":926,"x_min":0,"x_max":0,"o":"m 308 1000 l 1061 1000 l 1021 808 l 543 808 l 499 600 l 949 600 l 907 408 l 457 408 l 413 194 l 901 194 l 860 0 l 96 0 m 806 1314 l 1043 1314 l 1000 1113 l 763 1113 m 440 1314 l 678 1314 l 635 1113 l 397 1113 "},"È":{"ha":926,"x_min":0,"x_max":0,"o":"m 308 1000 l 1061 1000 l 1021 808 l 543 808 l 499 600 l 949 600 l 907 408 l 457 408 l 413 194 l 901 194 l 860 0 l 96 0 m 442 1314 l 731 1314 l 836 1113 l 657 1113 "},"Í":{"ha":463,"x_min":0,"x_max":0,"o":"m 296 1003 l 582 1003 l 369 0 l 83 0 m 499 1113 l 315 1113 l 513 1314 l 796 1314 "},"Î":{"ha":463,"x_min":0,"x_max":0,"o":"m 296 1003 l 582 1003 l 369 0 l 83 0 m 622 1314 l 746 1113 l 565 1113 l 486 1219 l 360 1113 l 179 1113 l 388 1314 "},"Ï":{"ha":463,"x_min":0,"x_max":0,"o":"m 296 1003 l 582 1003 l 369 0 l 83 0 m 574 1314 l 811 1314 l 768 1113 l 531 1113 m 208 1314 l 446 1314 l 403 1113 l 165 1113 "},"Ì":{"ha":463,"x_min":0,"x_max":0,"o":"m 296 1003 l 582 1003 l 369 0 l 83 0 m 210 1314 l 499 1314 l 604 1113 l 425 1113 "},"Ñ":{"ha":1157,"x_min":0,"x_max":0,"o":"m 306 1003 l 689 1003 l 869 256 l 1025 1003 l 1268 1003 l 1056 0 l 681 0 l 500 779 l 338 0 l 93 0 m 506 1113 b 594 1253 519 1165 551 1215 b 751 1315 636 1290 692 1315 b 849 1296 788 1315 814 1307 l 950 1265 b 990 1257 967 1260 976 1257 b 1049 1311 1031 1257 1044 1297 l 1161 1311 b 924 1111 1128 1203 1028 1111 b 857 1124 900 1111 875 1118 l 750 1157 b 693 1168 714 1168 703 1168 b 614 1113 640 1168 619 1124 "},"Ó":{"ha":1157,"x_min":0,"x_max":0,"o":"m 161 497 b 382 892 175 564 229 764 b 804 1031 536 1019 731 1031 b 1199 499 1204 1031 1251 743 b 565 -24 1114 99 804 -24 b 161 497 299 -24 82 124 m 447 499 b 613 181 414 339 428 181 b 913 503 811 181 883 364 b 903 757 942 643 924 713 b 751 829 874 813 813 829 b 447 499 568 829 485 671 m 863 1113 l 679 1113 l 876 1314 l 1160 1314 "},"Ô":{"ha":1157,"x_min":0,"x_max":0,"o":"m 161 497 b 382 892 175 564 229 764 b 804 1031 536 1019 731 1031 b 1199 499 1204 1031 1251 743 b 565 -24 1114 99 804 -24 b 161 497 299 -24 82 124 m 447 499 b 613 181 414 339 428 181 b 913 503 811 181 883 364 b 903 757 942 643 924 713 b 751 829 874 813 813 829 b 447 499 568 829 485 671 m 969 1314 l 1093 1113 l 913 1113 l 833 1219 l 707 1113 l 526 1113 l 735 1314 "},"Ö":{"ha":1157,"x_min":0,"x_max":0,"o":"m 161 497 b 382 892 175 564 229 764 b 804 1031 536 1019 731 1031 b 1199 499 1204 1031 1251 743 b 565 -24 1114 99 804 -24 b 161 497 299 -24 82 124 m 447 499 b 613 181 414 339 428 181 b 913 503 811 181 883 364 b 903 757 942 643 924 713 b 751 829 874 813 813 829 b 447 499 568 829 485 671 m 921 1314 l 1158 1314 l 1115 1113 l 878 1113 m 556 1314 l 793 1314 l 750 1113 l 513 1113 "},"Ò":{"ha":1157,"x_min":0,"x_max":0,"o":"m 161 497 b 382 892 175 564 229 764 b 804 1031 536 1019 731 1031 b 1199 499 1204 1031 1251 743 b 565 -24 1114 99 804 -24 b 161 497 299 -24 82 124 m 447 499 b 613 181 414 339 428 181 b 913 503 811 181 883 364 b 903 757 942 643 924 713 b 751 829 874 813 813 829 b 447 499 568 829 485 671 m 557 1314 l 846 1314 l 951 1113 l 772 1113 "},"Õ":{"ha":1157,"x_min":0,"x_max":0,"o":"m 161 497 b 382 892 175 564 229 764 b 804 1031 536 1019 731 1031 b 1199 499 1204 1031 1251 743 b 565 -24 1114 99 804 -24 b 161 497 299 -24 82 124 m 447 499 b 613 181 414 339 428 181 b 913 503 811 181 883 364 b 903 757 942 643 924 713 b 751 829 874 813 813 829 b 447 499 568 829 485 671 m 489 1113 b 578 1253 503 1165 535 1215 b 735 1315 619 1290 675 1315 b 832 1296 771 1315 797 1307 l 933 1265 b 974 1257 950 1260 960 1257 b 1032 1311 1014 1257 1028 1297 l 1144 1311 b 907 1111 1111 1203 1011 1111 b 840 1124 883 1111 858 1118 l 733 1157 b 676 1168 697 1168 686 1168 b 597 1113 624 1168 603 1124 "},"Š":{"ha":1003,"x_min":0,"x_max":0,"o":"m 406 319 b 542 164 399 279 376 164 b 715 278 565 164 690 164 b 649 375 725 325 713 357 l 417 439 b 226 714 351 457 182 504 b 715 1028 261 876 415 1028 b 1057 708 1107 1028 1079 815 l 775 708 b 674 847 782 739 807 847 b 519 742 593 847 532 801 b 599 639 503 668 560 650 l 775 590 b 1006 301 901 556 1051 514 b 494 -22 958 78 746 -22 b 156 97 390 -22 225 -6 b 126 319 99 178 118 276 m 886 1314 l 1063 1314 l 853 1113 l 621 1113 l 499 1314 l 674 1314 l 757 1204 "},"Ú":{"ha":1157,"x_min":0,"x_max":0,"o":"m 593 1003 l 467 407 b 467 256 456 353 447 297 b 621 174 493 200 553 174 b 872 417 797 174 850 317 l 996 1003 l 1267 1003 l 1144 422 b 1001 117 1121 311 1079 190 b 568 -26 879 -3 694 -26 b 190 432 94 -26 156 268 l 313 1003 m 863 1113 l 679 1113 l 876 1314 l 1160 1314 "},"Û":{"ha":1157,"x_min":0,"x_max":0,"o":"m 593 1003 l 467 407 b 467 256 456 353 447 297 b 621 174 493 200 553 174 b 872 417 797 174 850 317 l 996 1003 l 1267 1003 l 1144 422 b 1001 117 1121 311 1079 190 b 568 -26 879 -3 694 -26 b 190 432 94 -26 156 268 l 313 1003 m 969 1314 l 1093 1113 l 913 1113 l 833 1219 l 707 1113 l 526 1113 l 735 1314 "},"Ü":{"ha":1157,"x_min":0,"x_max":0,"o":"m 593 1003 l 467 407 b 467 256 456 353 447 297 b 621 174 493 200 553 174 b 872 417 797 174 850 317 l 996 1003 l 1267 1003 l 1144 422 b 1001 117 1121 311 1079 190 b 568 -26 879 -3 694 -26 b 190 432 94 -26 156 268 l 313 1003 m 921 1314 l 1158 1314 l 1115 1113 l 878 1113 m 556 1314 l 793 1314 l 750 1113 l 513 1113 "},"Ù":{"ha":1157,"x_min":0,"x_max":0,"o":"m 593 1003 l 467 407 b 467 256 456 353 447 297 b 621 174 493 200 553 174 b 872 417 797 174 850 317 l 996 1003 l 1267 1003 l 1144 422 b 1001 117 1121 311 1079 190 b 568 -26 879 -3 694 -26 b 190 432 94 -26 156 268 l 313 1003 m 557 1314 l 846 1314 l 951 1113 l 772 1113 "},"Ý":{"ha":1081,"x_min":0,"x_max":0,"o":"m 543 1003 l 674 582 l 989 1003 l 1275 1003 l 746 354 l 671 0 l 390 0 l 468 367 l 221 1003 m 825 1113 l 642 1113 l 839 1314 l 1122 1314 "},"Ÿ":{"ha":1081,"x_min":0,"x_max":0,"o":"m 543 1003 l 674 582 l 989 1003 l 1275 1003 l 746 354 l 671 0 l 390 0 l 468 367 l 221 1003 m 883 1314 l 1121 1314 l 1078 1113 l 840 1113 m 518 1314 l 756 1314 l 713 1113 l 475 1113 "},"Ž":{"ha":926,"x_min":0,"x_max":0,"o":"m 71 221 l 694 807 l 222 807 l 264 1000 l 1081 1000 l 1035 786 l 393 194 l 921 194 l 879 0 l 24 0 m 847 1314 l 1024 1314 l 814 1113 l 582 1113 l 460 1314 l 635 1314 l 718 1204 "},"á":{"ha":849,"x_min":0,"x_max":0,"o":"m 528 0 b 540 100 528 25 532 56 b 288 -14 499 53 431 -14 b 88 203 117 -14 61 79 b 617 450 128 393 319 463 b 560 594 633 525 639 594 b 444 489 511 594 460 568 l 194 489 b 279 635 203 521 215 581 b 588 722 346 690 461 722 b 839 642 650 722 781 714 b 861 458 875 599 878 533 l 792 133 b 778 0 782 83 781 69 m 589 329 b 350 226 478 328 371 326 b 425 132 339 175 363 132 b 542 199 453 132 504 143 b 589 329 572 243 585 300 m 610 807 l 426 807 l 624 1008 l 907 1008 "},"â":{"ha":849,"x_min":0,"x_max":0,"o":"m 528 0 b 540 100 528 25 532 56 b 288 -14 499 53 431 -14 b 88 203 117 -14 61 79 b 617 450 128 393 319 463 b 560 594 633 525 639 594 b 444 489 511 594 460 568 l 194 489 b 279 635 203 521 215 581 b 588 722 346 690 461 722 b 839 642 650 722 781 714 b 861 458 875 599 878 533 l 792 133 b 778 0 782 83 781 69 m 589 329 b 350 226 478 328 371 326 b 425 132 339 175 363 132 b 542 199 453 132 504 143 b 589 329 572 243 585 300 m 750 1008 l 874 807 l 693 807 l 614 914 l 488 807 l 307 807 l 515 1008 "},"ä":{"ha":849,"x_min":0,"x_max":0,"o":"m 528 0 b 540 100 528 25 532 56 b 288 -14 499 53 431 -14 b 88 203 117 -14 61 79 b 617 450 128 393 319 463 b 560 594 633 525 639 594 b 444 489 511 594 460 568 l 194 489 b 279 635 203 521 215 581 b 588 722 346 690 461 722 b 839 642 650 722 781 714 b 861 458 875 599 878 533 l 792 133 b 778 0 782 83 781 69 m 589 329 b 350 226 478 328 371 326 b 425 132 339 175 363 132 b 542 199 453 132 504 143 b 589 329 572 243 585 300 m 701 1008 l 939 1008 l 896 807 l 658 807 m 336 1008 l 574 1008 l 531 807 l 293 807 "},"à":{"ha":849,"x_min":0,"x_max":0,"o":"m 528 0 b 540 100 528 25 532 56 b 288 -14 499 53 431 -14 b 88 203 117 -14 61 79 b 617 450 128 393 319 463 b 560 594 633 525 639 594 b 444 489 511 594 460 568 l 194 489 b 279 635 203 521 215 581 b 588 722 346 690 461 722 b 839 642 650 722 781 714 b 861 458 875 599 878 533 l 792 133 b 778 0 782 83 781 69 m 589 329 b 350 226 478 328 371 326 b 425 132 339 175 363 132 b 542 199 453 132 504 143 b 589 329 572 243 585 300 m 363 1008 l 651 1008 l 757 807 l 578 807 "},"å":{"ha":849,"x_min":0,"x_max":0,"o":"m 528 0 b 540 100 528 25 532 56 b 288 -14 499 53 431 -14 b 88 203 117 -14 61 79 b 617 450 128 393 319 463 b 560 594 633 525 639 594 b 444 489 511 594 460 568 l 194 489 b 279 635 203 521 215 581 b 588 722 346 690 461 722 b 839 642 650 722 781 714 b 861 458 875 599 878 533 l 792 133 b 778 0 782 83 781 69 m 589 329 b 350 226 478 328 371 326 b 425 132 339 175 363 132 b 542 199 453 132 504 143 b 589 329 572 243 585 300 m 774 907 b 585 751 756 821 671 751 b 463 907 499 751 444 822 b 651 1064 481 993 564 1064 b 774 907 738 1064 792 993 m 692 907 b 633 982 700 949 674 982 b 544 907 592 982 553 949 b 603 833 536 867 561 833 b 692 907 643 833 683 867 "},"ã":{"ha":849,"x_min":0,"x_max":0,"o":"m 528 0 b 540 100 528 25 532 56 b 288 -14 499 53 431 -14 b 88 203 117 -14 61 79 b 617 450 128 393 319 463 b 560 594 633 525 639 594 b 444 489 511 594 460 568 l 194 489 b 279 635 203 521 215 581 b 588 722 346 690 461 722 b 839 642 650 722 781 714 b 861 458 875 599 878 533 l 792 133 b 778 0 782 83 781 69 m 589 329 b 350 226 478 328 371 326 b 425 132 339 175 363 132 b 542 199 453 132 504 143 b 589 329 572 243 585 300 m 258 807 b 347 947 274 860 304 910 b 506 1010 390 985 446 1010 b 603 990 542 1010 567 1001 l 703 960 b 744 951 719 954 731 951 b 801 1006 785 951 797 992 l 914 1006 b 676 806 881 897 781 806 b 610 818 653 806 628 813 l 503 851 b 446 863 467 863 456 863 b 367 807 393 863 372 818 "},"ç":{"ha":849,"x_min":0,"x_max":0,"o":"m 860 272 b 460 -17 831 128 703 -7 l 408 -86 b 456 -82 418 -85 433 -82 b 572 -185 551 -82 583 -133 b 358 -303 561 -235 507 -303 b 207 -275 329 -303 264 -301 l 236 -212 b 360 -243 253 -221 296 -243 b 444 -189 379 -243 433 -243 b 386 -137 453 -153 418 -137 b 331 -150 364 -137 349 -143 l 304 -122 l 392 -14 b 133 353 199 4 85 125 b 600 721 192 628 406 721 b 861 621 675 721 799 708 b 893 453 907 557 899 493 l 635 453 b 568 572 649 518 636 572 b 403 353 472 572 429 475 b 471 131 364 172 406 131 b 596 272 560 131 585 219 "},"é":{"ha":849,"x_min":0,"x_max":0,"o":"m 356 296 b 453 126 349 258 319 126 b 594 228 522 126 574 163 l 838 228 b 422 -15 781 53 603 -15 b 124 338 179 -15 74 107 b 576 722 172 571 319 722 b 869 544 771 722 843 643 b 856 296 888 485 882 418 m 640 438 b 546 583 646 478 660 583 b 389 438 432 583 399 471 m 610 807 l 426 807 l 624 1008 l 907 1008 "},"ê":{"ha":849,"x_min":0,"x_max":0,"o":"m 356 296 b 453 126 349 258 319 126 b 594 228 522 126 574 163 l 838 228 b 422 -15 781 53 603 -15 b 124 338 179 -15 74 107 b 576 722 172 571 319 722 b 869 544 771 722 843 643 b 856 296 888 485 882 418 m 640 438 b 546 583 646 478 660 583 b 389 438 432 583 399 471 m 750 1008 l 874 807 l 693 807 l 614 914 l 488 807 l 307 807 l 515 1008 "},"ë":{"ha":849,"x_min":0,"x_max":0,"o":"m 356 296 b 453 126 349 258 319 126 b 594 228 522 126 574 163 l 838 228 b 422 -15 781 53 603 -15 b 124 338 179 -15 74 107 b 576 722 172 571 319 722 b 869 544 771 722 843 643 b 856 296 888 485 882 418 m 640 438 b 546 583 646 478 660 583 b 389 438 432 583 399 471 m 701 1008 l 939 1008 l 896 807 l 658 807 m 336 1008 l 574 1008 l 531 807 l 293 807 "},"è":{"ha":849,"x_min":0,"x_max":0,"o":"m 356 296 b 453 126 349 258 319 126 b 594 228 522 126 574 163 l 838 228 b 422 -15 781 53 603 -15 b 124 338 179 -15 74 107 b 576 722 172 571 319 722 b 869 544 771 722 843 643 b 856 296 888 485 882 418 m 640 438 b 546 583 646 478 660 583 b 389 438 432 583 399 471 m 363 1008 l 651 1008 l 757 807 l 578 807 "},"í":{"ha":463,"x_min":0,"x_max":0,"o":"m 100 0 l 249 697 l 513 697 l 364 0 m 450 807 l 267 807 l 464 1008 l 747 1008 "},"î":{"ha":463,"x_min":0,"x_max":0,"o":"m 100 0 l 249 697 l 513 697 l 364 0 m 557 1008 l 681 807 l 500 807 l 421 914 l 294 807 l 114 807 l 322 1008 "},"ï":{"ha":463,"x_min":0,"x_max":0,"o":"m 100 0 l 249 697 l 513 697 l 364 0 m 508 1008 l 746 1008 l 703 807 l 465 807 m 143 1008 l 381 1008 l 338 807 l 100 807 "},"ì":{"ha":463,"x_min":0,"x_max":0,"o":"m 100 0 l 249 697 l 513 697 l 364 0 m 144 1008 l 433 1008 l 539 807 l 360 807 "},"ñ":{"ha":926,"x_min":0,"x_max":0,"o":"m 206 549 l 231 697 l 492 697 l 471 590 b 729 713 514 643 585 713 b 924 422 985 713 943 518 l 833 0 l 572 0 l 657 400 b 582 547 668 449 689 547 b 433 400 465 547 439 425 l 349 0 l 89 0 m 283 807 b 372 947 299 860 329 910 b 531 1010 415 985 471 1010 b 628 990 567 1010 592 1001 l 728 960 b 769 951 744 954 756 951 b 826 1006 810 951 822 992 l 939 1006 b 701 806 906 897 806 806 b 635 818 678 806 653 813 l 528 851 b 471 863 492 863 481 863 b 392 807 418 863 397 818 "},"ó":{"ha":926,"x_min":0,"x_max":0,"o":"m 128 351 b 614 721 174 565 338 721 b 940 360 840 721 993 607 b 781 83 919 258 868 156 b 471 -17 710 26 614 -17 b 171 86 317 -17 225 21 b 128 351 107 163 110 267 m 399 350 b 396 185 389 304 378 236 b 486 129 415 132 463 129 b 669 350 600 129 649 253 b 583 572 694 471 688 572 b 399 350 468 572 421 454 m 682 807 l 499 807 l 696 1008 l 979 1008 "},"ô":{"ha":926,"x_min":0,"x_max":0,"o":"m 128 351 b 614 721 174 565 338 721 b 940 360 840 721 993 607 b 781 83 919 258 868 156 b 471 -17 710 26 614 -17 b 171 86 317 -17 225 21 b 128 351 107 163 110 267 m 399 350 b 396 185 389 304 378 236 b 486 129 415 132 463 129 b 669 350 600 129 649 253 b 583 572 694 471 688 572 b 399 350 468 572 421 454 m 806 1008 l 929 807 l 749 807 l 669 914 l 543 807 l 363 807 l 571 1008 "},"ö":{"ha":926,"x_min":0,"x_max":0,"o":"m 128 351 b 614 721 174 565 338 721 b 940 360 840 721 993 607 b 781 83 919 258 868 156 b 471 -17 710 26 614 -17 b 171 86 317 -17 225 21 b 128 351 107 163 110 267 m 399 350 b 396 185 389 304 378 236 b 486 129 415 132 463 129 b 669 350 600 129 649 253 b 583 572 694 471 688 572 b 399 350 468 572 421 454 m 740 1008 l 978 1008 l 935 807 l 697 807 m 375 1008 l 613 1008 l 569 807 l 332 807 "},"ò":{"ha":926,"x_min":0,"x_max":0,"o":"m 128 351 b 614 721 174 565 338 721 b 940 360 840 721 993 607 b 781 83 919 258 868 156 b 471 -17 710 26 614 -17 b 171 86 317 -17 225 21 b 128 351 107 163 110 267 m 399 350 b 396 185 389 304 378 236 b 486 129 415 132 463 129 b 669 350 600 129 649 253 b 583 572 694 471 688 572 b 399 350 468 572 421 454 m 376 1008 l 665 1008 l 771 807 l 592 807 "},"õ":{"ha":926,"x_min":0,"x_max":0,"o":"m 128 351 b 614 721 174 565 338 721 b 940 360 840 721 993 607 b 781 83 919 258 868 156 b 471 -17 710 26 614 -17 b 171 86 317 -17 225 21 b 128 351 107 163 110 267 m 399 350 b 396 185 389 304 378 236 b 486 129 415 132 463 129 b 669 350 600 129 649 253 b 583 572 694 471 688 572 b 399 350 468 572 421 454 m 292 807 b 381 947 307 860 338 910 b 539 1010 424 985 479 1010 b 636 990 575 1010 600 1001 l 736 960 b 778 951 753 954 764 951 b 835 1006 818 951 831 992 l 947 1006 b 710 806 914 897 814 806 b 643 818 686 806 661 813 l 536 851 b 479 863 500 863 489 863 b 400 807 426 863 406 818 "},"š":{"ha":772,"x_min":0,"x_max":0,"o":"m 347 226 b 344 164 344 214 339 188 b 411 121 350 142 367 121 b 506 192 471 121 500 161 b 424 269 517 240 479 254 l 290 310 b 161 499 250 321 131 356 b 279 657 176 568 226 626 b 539 717 349 700 436 717 b 807 482 689 717 838 676 l 560 482 b 564 550 564 503 569 529 b 500 588 558 572 542 588 b 410 526 460 588 418 569 b 465 460 400 486 426 471 l 640 408 b 764 217 704 390 793 353 b 379 -19 714 -19 440 -19 b 89 226 238 -19 38 1 m 706 1008 l 882 1008 l 672 807 l 440 807 l 318 1008 l 493 1008 l 578 899 "},"ú":{"ha":926,"x_min":0,"x_max":0,"o":"m 497 697 l 410 290 b 486 154 401 251 382 154 b 625 293 596 154 617 254 l 711 697 l 972 697 l 849 121 b 828 0 839 61 838 54 l 571 0 l 589 108 b 343 -12 493 -4 404 -12 b 154 304 101 -12 125 171 l 238 697 m 682 807 l 499 807 l 696 1008 l 979 1008 "},"û":{"ha":926,"x_min":0,"x_max":0,"o":"m 497 697 l 410 290 b 486 154 401 251 382 154 b 625 293 596 154 617 254 l 711 697 l 972 697 l 849 121 b 828 0 839 61 838 54 l 571 0 l 589 108 b 343 -12 493 -4 404 -12 b 154 304 101 -12 125 171 l 238 697 m 789 1008 l 913 807 l 732 807 l 653 914 l 526 807 l 346 807 l 554 1008 "},"ü":{"ha":926,"x_min":0,"x_max":0,"o":"m 497 697 l 410 290 b 486 154 401 251 382 154 b 625 293 596 154 617 254 l 711 697 l 972 697 l 849 121 b 828 0 839 61 838 54 l 571 0 l 589 108 b 343 -12 493 -4 404 -12 b 154 304 101 -12 125 171 l 238 697 m 740 1008 l 978 1008 l 935 807 l 697 807 m 375 1008 l 613 1008 l 569 807 l 332 807 "},"ù":{"ha":926,"x_min":0,"x_max":0,"o":"m 497 697 l 410 290 b 486 154 401 251 382 154 b 625 293 596 154 617 254 l 711 697 l 972 697 l 849 121 b 828 0 839 61 838 54 l 571 0 l 589 108 b 343 -12 493 -4 404 -12 b 154 304 101 -12 125 171 l 238 697 m 376 1008 l 665 1008 l 771 807 l 592 807 "},"ý":{"ha":849,"x_min":0,"x_max":0,"o":"m 392 -264 l 149 -264 l 299 -22 l 160 697 l 442 697 l 478 213 l 732 697 l 975 697 m 643 807 l 460 807 l 657 1008 l 940 1008 "},"ÿ":{"ha":849,"x_min":0,"x_max":0,"o":"m 392 -264 l 149 -264 l 299 -22 l 160 697 l 442 697 l 478 213 l 732 697 l 975 697 m 701 1008 l 939 1008 l 896 807 l 658 807 m 336 1008 l 574 1008 l 531 807 l 293 807 "},"ž":{"ha":772,"x_min":0,"x_max":0,"o":"m 93 176 l 503 528 l 183 528 l 218 696 l 835 696 l 799 524 l 383 165 l 739 165 l 704 0 l 56 0 m 706 1008 l 882 1008 l 672 807 l 440 807 l 318 1008 l 493 1008 l 578 899 "},"Ω":{"ha":1186,"x_min":0,"x_max":0,"o":"m 321 174 b 197 544 238 240 160 365 b 804 988 249 786 494 988 b 1218 549 1125 988 1265 771 b 933 174 1181 369 1057 249 l 932 169 l 1158 169 l 1122 0 l 663 0 l 690 129 b 981 507 819 194 936 303 b 769 819 1015 674 943 819 b 419 500 606 819 458 689 b 550 129 381 318 444 186 l 522 0 l 61 0 l 97 169 l 319 169 "},"μ":{"ha":926,"x_min":0,"x_max":0,"o":"m 279 697 l 474 697 l 400 354 b 476 147 374 229 367 147 b 646 347 599 147 626 253 l 721 697 l 914 697 l 765 0 l 604 0 l 621 79 b 450 -11 590 46 540 -11 b 329 56 365 -11 343 31 l 254 -296 l 68 -296 "},"π":{"ha":989,"x_min":0,"x_max":0,"o":"m 960 557 l 890 231 b 861 0 868 125 860 46 l 639 0 b 657 214 624 28 635 114 l 729 557 l 526 557 b 314 0 488 396 390 118 l 90 0 b 300 557 171 149 268 406 b 142 543 235 557 183 554 l 147 681 b 432 731 192 713 282 731 l 1125 731 l 1068 557 "},"€":{"ha":926,"x_min":0,"x_max":0,"o":"m 483 293 b 581 164 481 222 507 164 b 703 235 661 164 688 206 l 965 235 b 793 42 929 147 868 83 b 540 -19 721 0 633 -19 b 221 293 324 -19 229 111 l 63 293 l 153 443 l 231 443 b 236 479 233 457 233 465 b 246 515 239 489 243 506 l 117 515 l 207 665 l 297 665 b 756 990 382 853 533 990 b 1064 731 968 990 1069 901 l 804 731 b 786 789 804 758 800 776 b 717 807 774 801 751 807 b 561 665 639 807 590 743 l 882 665 l 790 515 l 517 515 l 508 479 l 501 443 l 747 443 l 656 293 "},"ℓ":{"ha":865,"x_min":0,"x_max":0,"o":"m 872 196 b 467 -15 747 40 597 -15 b 219 199 294 -15 224 71 b 221 211 219 203 221 207 b 133 160 192 194 164 176 l 99 272 b 250 365 147 303 201 333 l 317 679 b 696 1067 374 950 521 1067 b 888 810 867 1067 917 946 b 458 324 850 636 697 490 l 451 286 b 558 161 440 208 486 161 b 796 290 646 161 735 225 m 497 510 b 732 811 621 611 713 721 b 678 921 746 878 732 921 b 543 722 633 921 575 875 "},"℮":{"ha":1421,"x_min":0,"x_max":0,"o":"m 465 471 b 458 465 461 471 458 469 l 458 190 b 469 160 458 179 463 168 b 814 10 558 68 679 10 b 1175 176 958 10 1088 75 l 1256 176 b 813 -18 1156 58 993 -18 b 251 485 503 -18 251 207 b 813 990 251 764 503 990 b 1374 485 1122 990 1374 764 l 1374 471 m 1168 783 b 1154 817 1168 796 1163 807 b 814 960 1067 903 947 960 b 472 813 681 960 560 901 b 458 778 463 803 458 790 l 458 507 b 465 499 458 504 461 499 l 1161 499 b 1168 507 1167 499 1168 504 "},"∂":{"ha":936,"x_min":0,"x_max":0,"o":"m 307 1007 b 636 1094 360 1039 474 1094 b 988 556 896 1094 1058 892 b 396 -15 915 218 679 -15 b 118 322 154 -15 89 182 b 546 686 164 533 340 686 b 765 561 683 686 749 600 l 767 561 b 776 600 769 571 774 590 b 572 922 813 772 742 922 b 340 858 467 922 383 883 m 457 156 b 710 397 568 156 669 285 b 563 521 706 442 660 521 b 342 319 458 521 365 431 b 456 156 322 228 369 156 "},"∏":{"ha":1358,"x_min":0,"x_max":0,"o":"m 1161 786 l 1161 -133 l 943 -133 l 943 786 l 617 786 l 617 -133 l 399 -133 l 399 786 l 232 786 l 232 971 l 1328 971 l 1328 786 "},"∑":{"ha":1108,"x_min":0,"x_max":0,"o":"m 233 -135 l 233 -10 l 610 415 l 250 829 l 250 971 l 1054 971 l 1054 792 l 557 792 l 557 786 l 863 440 l 526 58 l 526 53 l 1085 53 l 1085 -135 "},"∙":{"ha":463,"x_min":0,"x_max":0,"o":"m 204 490 l 449 490 l 404 283 l 160 283 "},"√":{"ha":1158,"x_min":0,"x_max":0,"o":"m 819 -204 l 646 -204 l 400 401 l 285 356 l 249 464 l 529 579 l 699 125 b 733 10 711 85 724 44 l 736 8 b 763 133 743 40 753 86 l 1033 1161 l 1190 1161 "},"∞":{"ha":1296,"x_min":0,"x_max":0,"o":"m 1228 401 b 983 140 1228 236 1108 140 b 715 306 903 140 815 174 b 442 140 639 213 561 140 b 203 393 317 140 203 242 b 456 653 203 547 313 653 b 725 490 568 653 649 589 b 992 653 783 558 858 654 b 1228 403 1124 651 1228 554 m 458 253 b 654 389 539 253 601 326 b 451 543 594 469 546 543 b 318 393 374 543 318 482 b 456 253 318 317 376 253 m 979 543 b 782 399 893 543 828 453 b 986 253 869 288 918 253 b 1111 393 1067 253 1111 331 b 981 543 1111 481 1060 543 "},"∫":{"ha":806,"x_min":0,"x_max":0,"o":"m 767 1051 b 708 1064 751 1058 729 1064 b 628 1025 676 1064 646 1050 b 589 797 597 986 589 911 b 613 142 589 571 613 393 b 558 -133 613 14 590 -79 b 350 -246 513 -214 429 -246 b 222 -222 303 -246 249 -235 l 247 -81 b 318 -96 264 -86 289 -96 b 389 -65 346 -96 372 -86 b 433 143 418 -31 433 24 b 407 819 433 400 407 581 b 504 1140 407 982 436 1074 b 692 1206 550 1186 624 1206 b 789 1188 731 1206 771 1196 "},"≈":{"ha":1003,"x_min":0,"x_max":0,"o":"m 946 578 b 726 428 885 483 807 428 b 549 488 660 428 617 449 b 417 535 507 511 468 535 b 261 431 347 535 304 485 l 185 507 b 422 656 233 589 326 656 b 586 604 496 656 543 628 b 722 550 644 568 674 550 b 868 654 781 550 824 589 m 946 294 b 724 144 886 201 810 144 b 549 204 658 144 614 168 b 417 251 504 229 467 251 b 261 147 346 251 304 201 l 185 224 b 422 372 233 306 326 372 b 585 322 496 372 543 344 b 721 267 632 296 667 267 b 868 371 782 267 819 304 "},"≠":{"ha":1029,"x_min":0,"x_max":0,"o":"m 746 611 l 956 611 l 956 490 l 694 490 l 608 299 l 956 299 l 956 179 l 557 179 l 478 6 l 381 50 l 440 179 l 233 179 l 233 299 l 492 299 l 578 490 l 233 490 l 233 611 l 629 611 l 706 779 l 803 736 "},"≤":{"ha":1060,"x_min":0,"x_max":0,"o":"m 271 479 l 271 608 l 983 931 l 983 794 l 399 546 l 399 542 l 985 292 l 985 156 m 267 -19 l 267 104 l 988 104 l 988 -19 "},"≥":{"ha":1061,"x_min":0,"x_max":0,"o":"m 986 607 l 986 478 l 274 156 l 274 292 l 857 542 l 857 546 l 272 794 l 272 931 m 268 -19 l 268 104 l 982 104 l 982 -19 "},"◊":{"ha":1160,"x_min":0,"x_max":0,"o":"m 765 -71 l 594 -71 l 278 485 l 599 1040 l 769 1040 l 1088 485 m 711 814 b 683 882 701 835 688 863 l 679 882 b 650 814 672 861 661 836 l 468 489 l 654 151 b 681 86 665 129 676 101 l 686 86 b 713 150 692 103 704 135 l 896 479 "}," ":{"ha":463,"x_min":0,"x_max":0,"o":""},"­":{"ha":463,"x_min":0,"x_max":0,"o":"m 521 449 l 485 283 l 90 283 l 126 449 "},"ˉ":{"ha":463,"x_min":0,"x_max":0,"o":"m 167 958 l 697 958 l 675 853 l 144 853 "},"Ω":{"ha":1186,"x_min":0,"x_max":0,"o":"m 321 174 b 197 544 238 240 160 365 b 804 988 249 786 494 988 b 1218 549 1125 988 1265 771 b 933 174 1181 369 1057 249 l 932 169 l 1158 169 l 1122 0 l 663 0 l 690 129 b 981 507 819 194 936 303 b 769 819 1015 674 943 819 b 419 500 606 819 458 689 b 550 129 381 318 444 186 l 522 0 l 61 0 l 97 169 l 319 169 "},"∕":{"ha":232,"x_min":0,"x_max":0,"o":"m -212 0 l 503 982 l 654 982 l -61 0 "},"∆":{"ha":1074,"x_min":0,"x_max":0,"o":"m 61 115 l 614 994 l 888 994 l 1060 117 l 1035 0 l 36 0 m 815 169 l 733 576 b 701 804 725 643 707 744 l 694 804 b 578 596 672 760 615 664 l 314 169 "},"‐":{"ha":463,"x_min":0,"x_max":0,"o":"m 521 449 l 485 283 l 90 283 l 126 449 "}}}
